<svg width="16" height="16" viewBox="0 0 16 16" fill="none" xmlns="http://www.w3.org/2000/svg">
<g clip-path="url(#clip0_929_79042)">
<path d="M-1 3.00065C-1 2.63246 -0.701523 2.33398 -0.333333 2.33398H16.3333C16.7015 2.33398 17 2.63246 17 3.00065C17 3.36884 16.7015 3.66732 16.3333 3.66732H-0.333334C-0.701523 3.66732 -1 3.36884 -1 3.00065ZM-1 13.0007C-1 12.6325 -0.701523 12.334 -0.333333 12.334H10.3333C10.7015 12.334 11 12.6325 11 13.0007C11 13.3688 10.7015 13.6673 10.3333 13.6673H-0.333333C-0.701523 13.6673 -1 13.3688 -1 13.0007ZM-1 9.66732C-1 9.29913 -0.701523 9.00065 -0.333333 9.00065H16.3333C16.7015 9.00065 17 9.29913 17 9.66732C17 10.0355 16.7015 10.334 16.3333 10.334H-0.333334C-0.701523 10.334 -1 10.0355 -1 9.66732ZM-1 6.33398C-1 5.96579 -0.701523 5.66732 -0.333333 5.66732H10.3333C10.7015 5.66732 11 5.96579 11 6.33398C11 6.70217 10.7015 7.00065 10.3333 7.00065H-0.333333C-0.701523 7.00065 -1 6.70217 -1 6.33398Z" fill="black"/>
</g>
<defs>
<clipPath id="clip0_929_79042">
<rect width="16" height="16" fill="white"/>
</clipPath>
</defs>
</svg>
