<svg width="16" height="16" viewBox="0 0 16 16" fill="none" xmlns="http://www.w3.org/2000/svg">
<path d="M2.66663 3.00065C2.66663 2.63246 2.9651 2.33398 3.33329 2.33398H12.6666C13.0348 2.33398 13.3333 2.63246 13.3333 3.00065C13.3333 3.36884 13.0348 3.66732 12.6666 3.66732H3.33329C2.9651 3.66732 2.66663 3.36884 2.66663 3.00065ZM4.66663 13.0007C4.66663 12.6325 4.9651 12.334 5.33329 12.334H10.6666C11.0348 12.334 11.3333 12.6325 11.3333 13.0007C11.3333 13.3688 11.0348 13.6673 10.6666 13.6673H5.33329C4.9651 13.6673 4.66663 13.3688 4.66663 13.0007ZM4.66663 6.33398C4.66663 5.96579 4.9651 5.66732 5.33329 5.66732H10.6666C11.0348 5.66732 11.3333 5.96579 11.3333 6.33398C11.3333 6.70217 11.0348 7.00065 10.6666 7.00065H5.33329C4.9651 7.00065 4.66663 6.70217 4.66663 6.33398ZM2.66663 9.66732C2.66663 9.29913 2.9651 9.00065 3.33329 9.00065H12.6666C13.0348 9.00065 13.3333 9.29913 13.3333 9.66732C13.3333 10.0355 13.0348 10.334 12.6666 10.334H3.33329C2.9651 10.334 2.66663 10.0355 2.66663 9.66732Z" fill="black"/>
</svg>
