<svg width="16" height="16" viewBox="0 0 16 16" fill="none" xmlns="http://www.w3.org/2000/svg">
<path d="M5.33333 7.33268H8.33333C8.77536 7.33268 9.19928 7.15709 9.51184 6.84453C9.82441 6.53197 10 6.10804 10 5.66602C10 5.22399 9.82441 4.80007 9.51184 4.4875C9.19928 4.17494 8.77536 3.99935 8.33333 3.99935H5.33333V7.33268ZM12 10.3327C12 10.7266 11.9224 11.1168 11.7716 11.4807C11.6209 11.8447 11.3999 12.1754 11.1213 12.454C10.8427 12.7326 10.512 12.9536 10.1481 13.1043C9.78407 13.2551 9.39397 13.3327 9 13.3327H4.65C4.29101 13.3327 4 13.0417 4 12.6827V3.31602C4 2.95703 4.29101 2.66602 4.65 2.66602H8.33333C8.92064 2.66604 9.49502 2.83845 9.98525 3.16187C10.4755 3.48528 10.86 3.94548 11.0911 4.4854C11.3223 5.02531 11.3898 5.62119 11.2855 6.19914C11.1811 6.7771 10.9094 7.31171 10.504 7.73668C10.9591 8.00021 11.3369 8.3788 11.5995 8.83445C11.862 9.2901 12.0002 9.80679 12 10.3327ZM5.33333 8.66602V11.9993H9C9.44203 11.9993 9.86595 11.8238 10.1785 11.5112C10.4911 11.1986 10.6667 10.7747 10.6667 10.3327C10.6667 9.89066 10.4911 9.46673 10.1785 9.15417C9.86595 8.84161 9.44203 8.66602 9 8.66602H5.33333Z" fill="black"/>
</svg>
