<svg width="16" height="16" viewBox="0 0 16 16" fill="none" xmlns="http://www.w3.org/2000/svg">
<path fill-rule="evenodd" clip-rule="evenodd" d="M5.66659 3.33268C5.66659 2.96449 5.96507 2.66602 6.33326 2.66602H12.9999C13.3681 2.66602 13.6666 2.96449 13.6666 3.33268V4.66602C13.6666 5.03421 13.3681 5.33268 12.9999 5.33268C12.6317 5.33268 12.3333 5.03421 12.3333 4.66602V3.99935H8.92178L8.74478 5.41537C8.69911 5.78072 8.36591 6.03987 8.00057 5.9942C7.63522 5.94853 7.37607 5.61534 7.42174 5.24999L7.57807 3.99935H6.33326C5.96507 3.99935 5.66659 3.70087 5.66659 3.33268ZM2.50439 3.22004C2.7507 2.94637 3.17223 2.92418 3.4459 3.17049L13.4459 12.1705C13.7196 12.4168 13.7418 12.8383 13.4955 13.112C13.2491 13.3857 12.8276 13.4079 12.5539 13.1615L8.18471 9.22923L7.66144 13.4154C7.61577 13.7807 7.28258 14.0399 6.91723 13.9942C6.55189 13.9485 6.29274 13.6153 6.33841 13.25L6.97688 8.14219L2.55395 4.16155C2.28027 3.91524 2.25809 3.49371 2.50439 3.22004Z" fill="black"/>
</svg>
