<svg width="16" height="16" viewBox="0 0 16 16" fill="none" xmlns="http://www.w3.org/2000/svg">
<path d="M2 13.3333C2 12.9651 2.29848 12.6667 2.66667 12.6667H13.3333C13.7015 12.6667 14 12.9651 14 13.3333C14 13.7015 13.7015 14 13.3333 14H2.66667C2.29848 14 2 13.7015 2 13.3333Z" fill="black"/>
<path d="M10.3307 9.33333H5.66933L4.77029 11.5809C4.66905 11.834 4.42392 12 4.15133 12C3.6797 12 3.3572 11.5237 3.53236 11.0858L7.1657 2.41907C7.26695 2.16597 7.51209 2 7.78469 2H8.21531C8.48792 2 8.73305 2.16597 8.8343 2.41907L12.4676 11.0858C12.6428 11.5237 12.3203 12 11.8487 12C11.5761 12 11.3309 11.834 11.2297 11.5809L10.3307 9.33333ZM9.79733 8L8 3.92333L6.20267 8H9.79733Z" fill="black"/>
</svg>
