<svg width="16" height="16" viewBox="0 0 16 16" fill="none" xmlns="http://www.w3.org/2000/svg">
<path fill-rule="evenodd" clip-rule="evenodd" d="M5.99996 3.33268C5.99996 2.96449 6.29844 2.66602 6.66663 2.66602H12.6666C13.0348 2.66602 13.3333 2.96449 13.3333 3.33268C13.3333 3.70087 13.0348 3.99935 12.6666 3.99935H10.1568L7.24009 11.9993H9.33329C9.70148 11.9993 9.99996 12.2978 9.99996 12.666C9.99996 13.0342 9.70148 13.3327 9.33329 13.3327H3.33329C2.9651 13.3327 2.66663 13.0342 2.66663 12.666C2.66663 12.2978 2.9651 11.9993 3.33329 11.9993H5.84317L8.75983 3.99935H6.66663C6.29844 3.99935 5.99996 3.70087 5.99996 3.33268Z" fill="black"/>
</svg>
