<svg width="16" height="16" viewBox="0 0 16 16" fill="none" xmlns="http://www.w3.org/2000/svg">
<path fill-rule="evenodd" clip-rule="evenodd" d="M3.54758 3.99935C3.29301 3.99935 2.99996 4.23873 2.99996 4.64518V8.53432L4.75887 6.1811C4.77797 6.15554 4.79889 6.13139 4.82145 6.10882C5.47232 5.45795 6.5276 5.45795 7.17847 6.10883C7.19232 6.12267 7.20555 6.13713 7.21813 6.15214L9.59878 8.99425L10.3214 8.27549L10.3222 8.27471C10.9732 7.62462 12.0279 7.62488 12.6785 8.27549C12.6945 8.29154 12.7097 8.3084 12.7241 8.32601L13 8.6649V4.64518C13 4.23872 12.7069 3.99935 12.4523 3.99935H3.54758ZM14.3333 4.64518C14.3333 3.60189 13.539 2.66602 12.4523 2.66602H3.54758C2.46088 2.66602 1.66663 3.60189 1.66663 4.64518V11.9993C1.66663 12.7357 2.26358 13.3327 2.99996 13.3327H13C13.7363 13.3327 14.3333 12.7357 14.3333 11.9993V4.64518ZM13 10.7768L11.7173 9.20125C11.5863 9.0884 11.3885 9.09408 11.2643 9.2183L11.263 9.21957L10.0242 10.4517C9.89178 10.5834 9.71027 10.6535 9.52376 10.645C9.33725 10.6365 9.16285 10.5502 9.04296 10.4071L6.2199 7.03685C6.09778 6.92941 5.91585 6.92647 5.79046 7.02803L2.99996 10.7614V11.3535C2.99996 11.76 3.29301 11.9993 3.54758 11.9993H12.4523C12.7069 11.9993 13 11.76 13 11.3535V10.7768Z" fill="black"/>
<path d="M9.99996 6.99935C10.552 6.99935 11 6.55235 11 5.99935C11 5.44735 10.552 4.99935 9.99996 4.99935C9.44796 4.99935 8.99996 5.44735 8.99996 5.99935C8.99996 6.55235 9.44796 6.99935 9.99996 6.99935Z" fill="black"/>
</svg>
