<svg width="16" height="16" viewBox="0 0 16 16" fill="none" xmlns="http://www.w3.org/2000/svg">
<path d="M2 3.00065C2 2.63246 2.29848 2.33398 2.66667 2.33398H13.3333C13.7015 2.33398 14 2.63246 14 3.00065C14 3.36884 13.7015 3.66732 13.3333 3.66732H2.66667C2.29848 3.66732 2 3.36884 2 3.00065ZM2 13.0007C2 12.6325 2.29848 12.334 2.66667 12.334H13.3333C13.7015 12.334 14 12.6325 14 13.0007C14 13.3688 13.7015 13.6673 13.3333 13.6673H2.66667C2.29848 13.6673 2 13.3688 2 13.0007ZM2 9.66732C2 9.29913 2.29848 9.00065 2.66667 9.00065H13.3333C13.7015 9.00065 14 9.29913 14 9.66732C14 10.0355 13.7015 10.334 13.3333 10.334H2.66667C2.29848 10.334 2 10.0355 2 9.66732ZM2 6.33398C2 5.96579 2.29848 5.66732 2.66667 5.66732H13.3333C13.7015 5.66732 14 5.96579 14 6.33398C14 6.70217 13.7015 7.00065 13.3333 7.00065H2.66667C2.29848 7.00065 2 6.70217 2 6.33398Z" fill="black"/>
</svg>
