<svg width="16" height="16" viewBox="0 0 16 16" fill="none" xmlns="http://www.w3.org/2000/svg">
<path d="M10.0097 12.0233C9.64153 12.0233 9.34309 11.7249 9.34309 11.3567C9.34309 10.9886 9.64153 10.6902 10.0097 10.6902H10.6762C11.0264 10.6902 11.3732 10.6212 11.6967 10.4872C12.0203 10.3532 12.3143 10.1567 12.5619 9.9091C12.8095 9.66147 13.006 9.3675 13.14 9.04395C13.274 8.72041 13.343 8.37364 13.343 8.02344C13.343 7.67324 13.274 7.32647 13.14 7.00292C13.006 6.67938 12.8095 6.3854 12.5619 6.13777C12.3143 5.89014 12.0203 5.69371 11.6967 5.5597C11.3732 5.42568 11.0264 5.3567 10.6762 5.3567H10.0097C9.64153 5.3567 9.34309 5.05827 9.34309 4.69014C9.34309 4.322 9.64153 4.02357 10.0097 4.02357L10.6762 4.02357C11.7314 4.03216 12.7405 4.45736 13.4836 5.20655C14.2267 5.95574 14.6437 6.96821 14.6437 8.02344C14.6437 9.07866 14.2267 10.0911 13.4836 10.8403C12.7405 11.5895 11.7314 12.0147 10.6762 12.0233H10.0097ZM6.67589 11.3567C6.67589 11.7249 6.37746 12.0233 6.00932 12.0233H5.34276C4.81474 12.0276 4.29111 11.9273 3.80205 11.7282C3.31299 11.5292 2.86818 11.2352 2.49329 10.8634C2.1184 10.4915 1.82085 10.0491 1.61779 9.56169C1.41473 9.07427 1.31018 8.55147 1.31018 8.02344C1.31018 7.49541 1.41473 6.97261 1.61779 6.48518C1.82085 5.99776 2.1184 5.55537 2.49329 5.18352C2.86818 4.81167 3.31299 4.51772 3.80205 4.31864C4.29111 4.11955 4.81474 4.01927 5.34275 4.02357L6.00932 4.02357C6.37746 4.02357 6.67589 4.322 6.67589 4.69014C6.67589 5.05827 6.37746 5.3567 6.00932 5.3567H5.34276C4.99255 5.3567 4.64578 5.42568 4.32224 5.5597C3.9987 5.69371 3.70472 5.89014 3.45709 6.13777C3.20946 6.3854 3.01303 6.67938 2.87901 7.00292C2.745 7.32647 2.67602 7.67324 2.67602 8.02344C2.67602 8.37364 2.745 8.72041 2.87901 9.04395C3.01303 9.3675 3.20946 9.66147 3.45709 9.9091C3.70472 10.1567 3.9987 10.3532 4.32224 10.4872C4.64578 10.6212 4.99255 10.6902 5.34276 10.6902H6.00932C6.37746 10.6902 6.67589 10.9886 6.67589 11.3567ZM10.6758 7.3564C11.0442 7.3564 11.3428 7.65503 11.3428 8.02341C11.3428 8.39181 11.0441 8.69045 10.6757 8.69043L5.3432 8.69005C4.97504 8.69002 4.67656 8.39163 4.67642 8.02346C4.6763 7.65509 4.97488 7.3564 5.34325 7.3564H10.6758Z" fill="black"/>
</svg>
