<svg width="16" height="16" viewBox="0 0 16 16" fill="none" xmlns="http://www.w3.org/2000/svg">
<path d="M2 3.33268C2 2.96449 2.29848 2.66602 2.66667 2.66602H13.3333C13.7015 2.66602 14 2.96449 14 3.33268C14 3.70087 13.7015 3.99935 13.3333 3.99935H2.66667C2.29848 3.99935 2 3.70087 2 3.33268ZM2 13.3327C2 12.9645 2.29848 12.666 2.66667 12.666H13.3333C13.7015 12.666 14 12.9645 14 13.3327C14 13.7009 13.7015 13.9993 13.3333 13.9993H2.66667C2.29848 13.9993 2 13.7009 2 13.3327ZM7.33333 9.99935C7.33333 9.63116 7.63181 9.33268 8 9.33268H13.3333C13.7015 9.33268 14 9.63116 14 9.99935C14 10.3675 13.7015 10.666 13.3333 10.666H8C7.63181 10.666 7.33333 10.3675 7.33333 9.99935ZM7.33333 6.66602C7.33333 6.29783 7.63181 5.99935 8 5.99935H13.3333C13.7015 5.99935 14 6.29783 14 6.66602C14 7.0342 13.7015 7.33268 13.3333 7.33268H8C7.63181 7.33268 7.33333 7.0342 7.33333 6.66602ZM2.55906 8.82186C2.26309 8.56289 2.26309 8.10247 2.55906 7.84351L3.58864 6.94262C4.00892 6.57488 4.66667 6.87334 4.66667 7.4318V9.23357C4.66667 9.79202 4.00892 10.0905 3.58864 9.72274L2.55906 8.82186Z" fill="black"/>
</svg>
