<svg width="16" height="16" viewBox="0 0 16 16" fill="none" xmlns="http://www.w3.org/2000/svg">
<path d="M10.6666 5.33398H7.99996C6.93909 5.33398 5.92168 5.75541 5.17153 6.50556C4.42139 7.2557 3.99996 8.27312 3.99996 9.33398C3.99996 10.3948 4.42139 11.4123 5.17153 12.1624C5.92168 12.9126 6.93909 13.334 7.99996 13.334H9.99996C10.3681 13.334 10.6666 13.6325 10.6666 14.0007C10.6666 14.3688 10.3681 14.6673 9.99996 14.6673H7.99996C6.58547 14.6673 5.22892 14.1054 4.22872 13.1052C3.22853 12.105 2.66663 10.7485 2.66663 9.33398C2.66663 7.9195 3.22853 6.56294 4.22872 5.56275C5.22892 4.56255 6.58547 4.00065 7.99996 4.00065H10.6666V2.72176C10.6666 2.17067 11.3094 1.86962 11.7327 2.22242L14.0674 4.16797C14.3793 4.42784 14.3793 4.90679 14.0674 5.16666L11.7327 7.11222C11.3094 7.46502 10.6666 7.16397 10.6666 6.61287V5.33398Z" fill="black"/>
</svg>
