<svg width="16" height="16" viewBox="0 0 16 16" fill="none" xmlns="http://www.w3.org/2000/svg">
<path d="M11.436 9.33268C11.5893 9.67668 11.6667 10.0593 11.6667 10.4793C11.6667 11.374 11.3173 12.074 10.6193 12.5773C9.92 13.0807 8.95533 13.3327 7.724 13.3327C6.75545 13.3327 5.7958 13.1334 4.84458 12.7342C4.61803 12.6392 4.47733 12.4134 4.47733 12.1678C4.47733 11.678 5.0125 11.3666 5.46962 11.5423C6.16492 11.8096 6.87098 11.9433 7.588 11.9433C9.28867 11.9433 10.1413 11.4553 10.1473 10.4787C10.1509 10.2807 10.1144 10.084 10.0402 9.90035C9.96596 9.71673 9.85547 9.54997 9.71533 9.41002L9.63533 9.33202H2.66667C2.29848 9.33202 2 9.03354 2 8.66535C2 8.29716 2.29848 7.99868 2.66667 7.99868H13.3333C13.7015 7.99868 14 8.29716 14 8.66535C14 9.03354 13.7015 9.33202 13.3333 9.33202H11.436V9.33268ZM8.66083 7.31323C8.67151 7.3169 8.66886 7.33268 8.65758 7.33268H5.08987C5.08738 7.33268 5.08498 7.33175 5.08314 7.33007C4.96747 7.2243 4.86114 7.10874 4.76533 6.98468C4.47733 6.61268 4.33333 6.16335 4.33333 5.63402C4.33333 4.81002 4.644 4.10935 5.26467 3.53202C5.88667 2.95468 6.84733 2.66602 8.148 2.66602C9.00269 2.66602 9.82548 2.83211 10.6155 3.16431C10.8306 3.25476 10.9627 3.47001 10.9627 3.70337C10.9627 4.17249 10.448 4.47471 10.0021 4.32885C9.47449 4.15624 8.91783 4.07002 8.332 4.07002C6.67867 4.07002 5.85267 4.59135 5.85267 5.63402C5.85267 5.91402 5.998 6.15802 6.28867 6.36668C6.57933 6.57535 7.364 6.86668 7.364 6.86668L8.66083 7.31323Z" fill="black"/>
</svg>
