<svg width="16" height="16" viewBox="0 0 16 16" fill="none" xmlns="http://www.w3.org/2000/svg">
<path d="M8.33342 3.00065C8.33342 2.63246 8.63189 2.33398 9.00008 2.33398H13.6667C14.0349 2.33398 14.3334 2.63246 14.3334 3.00065C14.3334 3.36884 14.0349 3.66732 13.6667 3.66732H9.00008C8.63189 3.66732 8.33342 3.36884 8.33342 3.00065Z" fill="black"/>
<path d="M3.66675 12.334C3.66675 12.7022 3.96521 13.0007 4.33341 13.0007C4.70161 13.0007 5.00008 12.7022 5.00008 12.334V4.61012L5.86201 5.47205C6.12235 5.73238 6.54448 5.73238 6.80481 5.47205C7.06515 5.21172 7.06515 4.78958 6.80481 4.52925L4.80481 2.52924C4.67981 2.40422 4.51021 2.33398 4.33341 2.33398C4.15661 2.33398 3.98701 2.40422 3.86201 2.52924L1.86201 4.52925C1.60166 4.78958 1.60166 5.21172 1.86201 5.47205C2.12235 5.73238 2.54448 5.73238 2.80481 5.47205L3.66675 4.61012V12.334Z" fill="black"/>
<path d="M3.66675 5.00065C3.66675 4.63245 3.96521 4.33398 4.33341 4.33398C4.70161 4.33398 5.00008 4.63245 5.00008 5.00065V11.3912L5.86201 10.5293C6.12235 10.2689 6.54448 10.2689 6.80481 10.5293C7.06515 10.7896 7.06515 11.2117 6.80481 11.4721L4.80481 13.4721C4.67981 13.5971 4.51021 13.6673 4.33341 13.6673C4.15661 13.6673 3.98701 13.5971 3.86201 13.4721L1.86201 11.4721C1.60166 11.2117 1.60166 10.7896 1.86201 10.5293C2.12235 10.2689 2.54448 10.2689 2.80481 10.5293L3.66675 11.3912V5.00065Z" fill="black"/>
<path d="M8.33342 6.33398C8.33342 5.96579 8.63189 5.66732 9.00008 5.66732H13.6667C14.0349 5.66732 14.3334 5.96579 14.3334 6.33398C14.3334 6.70217 14.0349 7.00065 13.6667 7.00065H9.00008C8.63189 7.00065 8.33342 6.70217 8.33342 6.33398Z" fill="black"/>
<path d="M8.33342 9.66732C8.33342 9.29913 8.63189 9.00065 9.00008 9.00065H13.6667C14.0349 9.00065 14.3334 9.29913 14.3334 9.66732C14.3334 10.0355 14.0349 10.334 13.6667 10.334H9.00008C8.63189 10.334 8.33342 10.0355 8.33342 9.66732Z" fill="black"/>
<path d="M8.33342 13.0007C8.33342 12.6325 8.63189 12.334 9.00008 12.334H13.6667C14.0349 12.334 14.3334 12.6325 14.3334 13.0007C14.3334 13.3688 14.0349 13.6673 13.6667 13.6673H9.00008C8.63189 13.6673 8.33342 13.3688 8.33342 13.0007Z" fill="black"/>
</svg>
