<svg width="16" height="16" viewBox="0 0 16 16" fill="none" xmlns="http://www.w3.org/2000/svg">
<path d="M5.33337 5.33398V6.61287C5.33337 7.16397 4.69062 7.46502 4.26725 7.11222L1.93259 5.16666C1.62075 4.90679 1.62075 4.42784 1.93259 4.16797L4.26725 2.22242C4.69062 1.86962 5.33337 2.17067 5.33337 2.72176V4.00065H8.00004C9.41453 4.00065 10.7711 4.56255 11.7713 5.56275C12.7715 6.56294 13.3334 7.9195 13.3334 9.33398C13.3334 10.7485 12.7715 12.105 11.7713 13.1052C10.7711 14.1054 9.41453 14.6673 8.00004 14.6673H6.00004C5.63185 14.6673 5.33337 14.3688 5.33337 14.0007C5.33337 13.6325 5.63185 13.334 6.00004 13.334H8.00004C9.06091 13.334 10.0783 12.9126 10.8285 12.1624C11.5786 11.4123 12 10.3948 12 9.33398C12 8.27312 11.5786 7.2557 10.8285 6.50556C10.0783 5.75541 9.06091 5.33398 8.00004 5.33398H5.33337Z" fill="black"/>
</svg>
