<svg width="640" height="48" viewBox="0 0 640 48" fill="none" xmlns="http://www.w3.org/2000/svg">
<rect width="640" height="48" rx="12" fill="#F6F6F6"/>
<path d="M39.8334 21.334V22.6129C39.8334 23.164 39.1906 23.465 38.7673 23.1122L36.4326 21.1667C36.1207 20.9068 36.1207 20.4278 36.4326 20.168L38.7673 18.2224C39.1906 17.8696 39.8334 18.1707 39.8334 18.7218V20.0007H42.5C43.9145 20.0007 45.2711 20.5626 46.2713 21.5627C47.2715 22.5629 47.8334 23.9195 47.8334 25.334C47.8334 26.7485 47.2715 28.105 46.2713 29.1052C45.2711 30.1054 43.9145 30.6673 42.5 30.6673H40.5C40.1319 30.6673 39.8334 30.3688 39.8334 30.0007C39.8334 29.6325 40.1319 29.334 40.5 29.334H42.5C43.5609 29.334 44.5783 28.9126 45.3285 28.1624C46.0786 27.4123 46.5 26.3948 46.5 25.334C46.5 24.2731 46.0786 23.2557 45.3285 22.5056C44.5783 21.7554 43.5609 21.334 42.5 21.334H39.8334Z" fill="black"/>
<path d="M73.1666 21.334H70.5C69.4391 21.334 68.4217 21.7554 67.6715 22.5056C66.9214 23.2557 66.5 24.2731 66.5 25.334C66.5 26.3948 66.9214 27.4123 67.6715 28.1624C68.4217 28.9126 69.4391 29.334 70.5 29.334H72.5C72.8681 29.334 73.1666 29.6325 73.1666 30.0007C73.1666 30.3688 72.8681 30.6673 72.5 30.6673H70.5C69.0855 30.6673 67.7289 30.1054 66.7287 29.1052C65.7285 28.105 65.1666 26.7485 65.1666 25.334C65.1666 23.9195 65.7285 22.5629 66.7287 21.5627C67.7289 20.5626 69.0855 20.0007 70.5 20.0007H73.1666V18.7218C73.1666 18.1707 73.8094 17.8696 74.2327 18.2224L76.5674 20.168C76.8793 20.4278 76.8793 20.9068 76.5674 21.1667L74.2327 23.1122C73.8094 23.465 73.1666 23.164 73.1666 22.6129V21.334Z" fill="black"/>
<path d="M107.833 23.3327H110.833C111.275 23.3327 111.699 23.1571 112.012 22.8445C112.324 22.532 112.5 22.108 112.5 21.666C112.5 21.224 112.324 20.8001 112.012 20.4875C111.699 20.1749 111.275 19.9993 110.833 19.9993H107.833V23.3327ZM114.5 26.3327C114.5 26.7266 114.422 27.1168 114.272 27.4807C114.121 27.8447 113.9 28.1754 113.621 28.454C113.343 28.7326 113.012 28.9536 112.648 29.1043C112.284 29.2551 111.894 29.3327 111.5 29.3327H107.15C106.791 29.3327 106.5 29.0417 106.5 28.6827V19.316C106.5 18.957 106.791 18.666 107.15 18.666H110.833C111.421 18.666 111.995 18.8385 112.485 19.1619C112.975 19.4853 113.36 19.9455 113.591 20.4854C113.822 21.0253 113.89 21.6212 113.785 22.1991C113.681 22.7771 113.409 23.3117 113.004 23.7367C113.459 24.0002 113.837 24.3788 114.099 24.8344C114.362 25.2901 114.5 25.8068 114.5 26.3327ZM107.833 24.666V27.9993H111.5C111.942 27.9993 112.366 27.8238 112.679 27.5112C112.991 27.1986 113.167 26.7747 113.167 26.3327C113.167 25.8907 112.991 25.4667 112.679 25.1542C112.366 24.8416 111.942 24.666 111.5 24.666H107.833Z" fill="black"/>
<path fill-rule="evenodd" clip-rule="evenodd" d="M136.5 19.3327C136.5 18.9645 136.798 18.666 137.167 18.666H143.167C143.535 18.666 143.833 18.9645 143.833 19.3327C143.833 19.7009 143.535 19.9993 143.167 19.9993H140.657L137.74 27.9993H139.833C140.201 27.9993 140.5 28.2978 140.5 28.666C140.5 29.0342 140.201 29.3327 139.833 29.3327H133.833C133.465 29.3327 133.167 29.0342 133.167 28.666C133.167 28.2978 133.465 27.9993 133.833 27.9993H136.343L139.26 19.9993H137.167C136.798 19.9993 136.5 19.7009 136.5 19.3327Z" fill="black"/>
<path d="M163.833 18.6667C163.833 18.2985 163.535 18 163.167 18C162.799 18 162.5 18.2985 162.5 18.6667V23.3333C162.5 25.9107 163.167 28 166.5 28C169.833 28 170.5 25.9107 170.5 23.3333V18.6667C170.5 18.2985 170.202 18 169.833 18C169.465 18 169.167 18.2985 169.167 18.6667V23.3333C169.167 25.1743 169.167 26.6667 166.5 26.6667C163.833 26.6667 163.833 25.1743 163.833 23.3333V18.6667Z" fill="black"/>
<path d="M162.5 28.6667C162.132 28.6667 161.833 28.9651 161.833 29.3333C161.833 29.7015 162.132 30 162.5 30H170.5C170.868 30 171.167 29.7015 171.167 29.3333C171.167 28.9651 170.868 28.6667 170.5 28.6667H162.5Z" fill="black"/>
<path d="M197.936 25.3327C198.089 25.6767 198.167 26.0593 198.167 26.4793C198.167 27.374 197.817 28.074 197.119 28.5773C196.42 29.0807 195.455 29.3327 194.224 29.3327C193.255 29.3327 192.296 29.1334 191.345 28.7342C191.118 28.6392 190.977 28.4134 190.977 28.1678C190.977 27.678 191.512 27.3666 191.97 27.5423C192.665 27.8096 193.371 27.9433 194.088 27.9433C195.789 27.9433 196.641 27.4553 196.647 26.4787C196.651 26.2807 196.614 26.084 196.54 25.9003C196.466 25.7167 196.355 25.55 196.215 25.41L196.135 25.332H189.167C188.798 25.332 188.5 25.0335 188.5 24.6653C188.5 24.2972 188.798 23.9987 189.167 23.9987H199.833C200.202 23.9987 200.5 24.2972 200.5 24.6653C200.5 25.0335 200.202 25.332 199.833 25.332H197.936V25.3327ZM195.161 23.3132C195.172 23.3169 195.169 23.3327 195.158 23.3327H191.59C191.587 23.3327 191.585 23.3318 191.583 23.3301C191.467 23.2243 191.361 23.1087 191.265 22.9847C190.977 22.6127 190.833 22.1633 190.833 21.634C190.833 20.81 191.144 20.1093 191.765 19.532C192.387 18.9547 193.347 18.666 194.648 18.666C195.503 18.666 196.325 18.8321 197.115 19.1643C197.331 19.2548 197.463 19.47 197.463 19.7034C197.463 20.1725 196.948 20.4747 196.502 20.3289C195.974 20.1562 195.418 20.07 194.832 20.07C193.179 20.07 192.353 20.5913 192.353 21.634C192.353 21.914 192.498 22.158 192.789 22.3667C193.079 22.5753 193.864 22.8667 193.864 22.8667L195.161 23.3132Z" fill="black"/>
<path d="M216.5 29.3333C216.5 28.9651 216.798 28.6667 217.167 28.6667H227.833C228.202 28.6667 228.5 28.9651 228.5 29.3333C228.5 29.7015 228.202 30 227.833 30H217.167C216.798 30 216.5 29.7015 216.5 29.3333Z" fill="black"/>
<path d="M224.831 25.3333H220.169L219.27 27.5809C219.169 27.834 218.924 28 218.651 28C218.18 28 217.857 27.5237 218.032 27.0858L221.666 18.4191C221.767 18.166 222.012 18 222.285 18H222.715C222.988 18 223.233 18.166 223.334 18.4191L226.968 27.0858C227.143 27.5237 226.82 28 226.349 28C226.076 28 225.831 27.834 225.73 27.5809L224.831 25.3333ZM224.297 24L222.5 19.9233L220.703 24H224.297Z" fill="black"/>
<path d="M264.51 28.0233C264.142 28.0233 263.843 27.7249 263.843 27.3567C263.843 26.9886 264.142 26.6902 264.51 26.6902H265.176C265.526 26.6902 265.873 26.6212 266.197 26.4872C266.52 26.3532 266.814 26.1567 267.062 25.9091C267.31 25.6615 267.506 25.3675 267.64 25.044C267.774 24.7204 267.843 24.3736 267.843 24.0234C267.843 23.6732 267.774 23.3265 267.64 23.0029C267.506 22.6794 267.31 22.3854 267.062 22.1378C266.814 21.8901 266.52 21.6937 266.197 21.5597C265.873 21.4257 265.526 21.3567 265.176 21.3567H264.51C264.142 21.3567 263.843 21.0583 263.843 20.6901C263.843 20.322 264.142 20.0236 264.51 20.0236L265.176 20.0236C266.231 20.0322 267.24 20.4574 267.984 21.2066C268.727 21.9557 269.144 22.9682 269.144 24.0234C269.144 25.0787 268.727 26.0911 267.984 26.8403C267.24 27.5895 266.231 28.0147 265.176 28.0233H264.51ZM261.176 27.3567C261.176 27.7249 260.877 28.0233 260.509 28.0233H259.843C259.315 28.0276 258.791 27.9273 258.302 27.7282C257.813 27.5292 257.368 27.2352 256.993 26.8634C256.618 26.4915 256.321 26.0491 256.118 25.5617C255.915 25.0743 255.81 24.5515 255.81 24.0234C255.81 23.4954 255.915 22.9726 256.118 22.4852C256.321 21.9978 256.618 21.5554 256.993 21.1835C257.368 20.8117 257.813 20.5177 258.302 20.3186C258.791 20.1196 259.315 20.0193 259.843 20.0236L260.509 20.0236C260.877 20.0236 261.176 20.322 261.176 20.6901C261.176 21.0583 260.877 21.3567 260.509 21.3567H259.843C259.493 21.3567 259.146 21.4257 258.822 21.5597C258.499 21.6937 258.205 21.8901 257.957 22.1378C257.709 22.3854 257.513 22.6794 257.379 23.0029C257.245 23.3265 257.176 23.6732 257.176 24.0234C257.176 24.3736 257.245 24.7204 257.379 25.044C257.513 25.3675 257.709 25.6615 257.957 25.9091C258.205 26.1567 258.499 26.3532 258.822 26.4872C259.146 26.6212 259.493 26.6902 259.843 26.6902H260.509C260.877 26.6902 261.176 26.9886 261.176 27.3567ZM265.176 23.3564C265.544 23.3564 265.843 23.655 265.843 24.0234C265.843 24.3918 265.544 24.6905 265.176 24.6904L259.843 24.6901C259.475 24.69 259.177 24.3916 259.176 24.0235C259.176 23.6551 259.475 23.3564 259.843 23.3564H265.176Z" fill="black"/>
<path fill-rule="evenodd" clip-rule="evenodd" d="M286.048 19.9993C285.793 19.9993 285.5 20.2387 285.5 20.6452V24.5343L287.259 22.1811C287.278 22.1555 287.299 22.1314 287.321 22.1088C287.972 21.4579 289.028 21.458 289.678 22.1088C289.692 22.1227 289.706 22.1371 289.718 22.1521L292.099 24.9943L292.821 24.2755L292.822 24.2747C293.473 23.6246 294.528 23.6249 295.178 24.2755C295.195 24.2915 295.21 24.3084 295.224 24.326L295.5 24.6649V20.6452C295.5 20.2387 295.207 19.9993 294.952 19.9993H286.048ZM296.833 20.6452C296.833 19.6019 296.039 18.666 294.952 18.666H286.048C284.961 18.666 284.167 19.6019 284.167 20.6452V27.9993C284.167 28.7357 284.764 29.3327 285.5 29.3327H295.5C296.236 29.3327 296.833 28.7357 296.833 27.9993V20.6452ZM295.5 26.7768L294.217 25.2013C294.086 25.0884 293.888 25.0941 293.764 25.2183L293.763 25.2196L292.524 26.4517C292.392 26.5834 292.21 26.6535 292.024 26.645C291.837 26.6365 291.663 26.5502 291.543 26.4071L288.72 23.0368C288.598 22.9294 288.416 22.9265 288.29 23.028L285.5 26.7614V27.3535C285.5 27.76 285.793 27.9993 286.048 27.9993H294.952C295.207 27.9993 295.5 27.76 295.5 27.3535V26.7768Z" fill="black"/>
<path d="M292.5 22.9993C293.052 22.9993 293.5 22.5523 293.5 21.9993C293.5 21.4473 293.052 20.9993 292.5 20.9993C291.948 20.9993 291.5 21.4473 291.5 21.9993C291.5 22.5523 291.948 22.9993 292.5 22.9993Z" fill="black"/>
<g clip-path="url(#clip0_929_79014)">
<path d="M322 17C322 16.4477 322.448 16 323 16H334C334.552 16 335 16.4477 335 17C335 17.5523 334.552 18 334 18H323C322.448 18 322 17.5523 322 17ZM317 17C317 16.1716 317.672 15.5 318.5 15.5C319.328 15.5 320 16.1716 320 17C320 17.8284 319.328 18.5 318.5 18.5C317.672 18.5 317 17.8284 317 17ZM317 24C317 23.1716 317.672 22.5 318.5 22.5C319.328 22.5 320 23.1716 320 24C320 24.8284 319.328 25.5 318.5 25.5C317.672 25.5 317 24.8284 317 24ZM317 31C317 30.1716 317.672 29.5 318.5 29.5C319.328 29.5 320 30.1716 320 31C320 31.8284 319.328 32.5 318.5 32.5C317.672 32.5 317 31.8284 317 31ZM322 24C322 23.4477 322.448 23 323 23H334C334.552 23 335 23.4477 335 24C335 24.5523 334.552 25 334 25H323C322.448 25 322 24.5523 322 24ZM322 31C322 30.4477 322.448 30 323 30H334C334.552 30 335 30.4477 335 31C335 31.5523 334.552 32 334 32H323C322.448 32 322 31.5523 322 31Z" fill="black"/>
<path d="M358.41 22C358.935 22 359.197 22.5678 358.826 22.8999L354.417 26.8456C354.187 27.0515 353.813 27.0515 353.583 26.8456L349.174 22.8999C348.803 22.5678 349.065 22 349.59 22L358.41 22Z" fill="black"/>
</g>
<g clip-path="url(#clip1_929_79014)">
<path d="M380.5 19.0007C380.5 18.6325 380.798 18.334 381.167 18.334H397.833C398.202 18.334 398.5 18.6325 398.5 19.0007C398.5 19.3688 398.202 19.6673 397.833 19.6673H381.167C380.798 19.6673 380.5 19.3688 380.5 19.0007ZM380.5 29.0007C380.5 28.6325 380.798 28.334 381.167 28.334H391.833C392.202 28.334 392.5 28.6325 392.5 29.0007C392.5 29.3688 392.202 29.6673 391.833 29.6673H381.167C380.798 29.6673 380.5 29.3688 380.5 29.0007ZM380.5 25.6673C380.5 25.2991 380.798 25.0007 381.167 25.0007H397.833C398.202 25.0007 398.5 25.2991 398.5 25.6673C398.5 26.0355 398.202 26.334 397.833 26.334H381.167C380.798 26.334 380.5 26.0355 380.5 25.6673ZM380.5 22.334C380.5 21.9658 380.798 21.6673 381.167 21.6673H391.833C392.202 21.6673 392.5 21.9658 392.5 22.334C392.5 22.7022 392.202 23.0007 391.833 23.0007H381.167C380.798 23.0007 380.5 22.7022 380.5 22.334Z" fill="black"/>
</g>
<path d="M412.167 19.0007C412.167 18.6325 412.465 18.334 412.833 18.334H422.167C422.535 18.334 422.833 18.6325 422.833 19.0007C422.833 19.3688 422.535 19.6673 422.167 19.6673H412.833C412.465 19.6673 412.167 19.3688 412.167 19.0007ZM414.167 29.0007C414.167 28.6325 414.465 28.334 414.833 28.334H420.167C420.535 28.334 420.833 28.6325 420.833 29.0007C420.833 29.3688 420.535 29.6673 420.167 29.6673H414.833C414.465 29.6673 414.167 29.3688 414.167 29.0007ZM414.167 22.334C414.167 21.9658 414.465 21.6673 414.833 21.6673H420.167C420.535 21.6673 420.833 21.9658 420.833 22.334C420.833 22.7022 420.535 23.0007 420.167 23.0007H414.833C414.465 23.0007 414.167 22.7022 414.167 22.334ZM412.167 25.6673C412.167 25.2991 412.465 25.0007 412.833 25.0007H422.167C422.535 25.0007 422.833 25.2991 422.833 25.6673C422.833 26.0355 422.535 26.334 422.167 26.334H412.833C412.465 26.334 412.167 26.0355 412.167 25.6673Z" fill="black"/>
<path d="M439.5 19.0007C439.5 18.6325 439.798 18.334 440.167 18.334H450.833C451.202 18.334 451.5 18.6325 451.5 19.0007C451.5 19.3688 451.202 19.6673 450.833 19.6673H440.167C439.798 19.6673 439.5 19.3688 439.5 19.0007ZM442.167 29.0007C442.167 28.6325 442.465 28.334 442.833 28.334H450.833C451.202 28.334 451.5 28.6325 451.5 29.0007C451.5 29.3688 451.202 29.6673 450.833 29.6673H442.833C442.465 29.6673 442.167 29.3688 442.167 29.0007ZM439.5 25.6673C439.5 25.2991 439.798 25.0007 440.167 25.0007H450.833C451.202 25.0007 451.5 25.2991 451.5 25.6673C451.5 26.0355 451.202 26.334 450.833 26.334H440.167C439.798 26.334 439.5 26.0355 439.5 25.6673ZM442.167 22.334C442.167 21.9658 442.465 21.6673 442.833 21.6673H450.833C451.202 21.6673 451.5 21.9658 451.5 22.334C451.5 22.7022 451.202 23.0007 450.833 23.0007H442.833C442.465 23.0007 442.167 22.7022 442.167 22.334Z" fill="black"/>
<path d="M467.5 19.0007C467.5 18.6325 467.798 18.334 468.167 18.334H478.833C479.202 18.334 479.5 18.6325 479.5 19.0007C479.5 19.3688 479.202 19.6673 478.833 19.6673H468.167C467.798 19.6673 467.5 19.3688 467.5 19.0007ZM467.5 29.0007C467.5 28.6325 467.798 28.334 468.167 28.334H478.833C479.202 28.334 479.5 28.6325 479.5 29.0007C479.5 29.3688 479.202 29.6673 478.833 29.6673H468.167C467.798 29.6673 467.5 29.3688 467.5 29.0007ZM467.5 25.6673C467.5 25.2991 467.798 25.0007 468.167 25.0007H478.833C479.202 25.0007 479.5 25.2991 479.5 25.6673C479.5 26.0355 479.202 26.334 478.833 26.334H468.167C467.798 26.334 467.5 26.0355 467.5 25.6673ZM467.5 22.334C467.5 21.9658 467.798 21.6673 468.167 21.6673H478.833C479.202 21.6673 479.5 21.9658 479.5 22.334C479.5 22.7022 479.202 23.0007 478.833 23.0007H468.167C467.798 23.0007 467.5 22.7022 467.5 22.334Z" fill="black"/>
<path d="M513.833 19.0007C513.833 18.6325 514.132 18.334 514.5 18.334H519.167C519.535 18.334 519.833 18.6325 519.833 19.0007C519.833 19.3688 519.535 19.6673 519.167 19.6673H514.5C514.132 19.6673 513.833 19.3688 513.833 19.0007Z" fill="black"/>
<path d="M509.167 28.334C509.167 28.7022 509.465 29.0007 509.833 29.0007C510.202 29.0007 510.5 28.7022 510.5 28.334V20.6101L511.362 21.4721C511.622 21.7324 512.044 21.7324 512.305 21.4721C512.565 21.2117 512.565 20.7896 512.305 20.5293L510.305 18.5292C510.18 18.4042 510.01 18.334 509.833 18.334C509.657 18.334 509.487 18.4042 509.362 18.5292L507.362 20.5293C507.102 20.7896 507.102 21.2117 507.362 21.4721C507.622 21.7324 508.044 21.7324 508.305 21.4721L509.167 20.6101V28.334Z" fill="black"/>
<path d="M509.167 21.0007C509.167 20.6325 509.465 20.334 509.833 20.334C510.202 20.334 510.5 20.6325 510.5 21.0007V27.3912L511.362 26.5293C511.622 26.2689 512.044 26.2689 512.305 26.5293C512.565 26.7896 512.565 27.2117 512.305 27.4721L510.305 29.4721C510.18 29.5971 510.01 29.6673 509.833 29.6673C509.657 29.6673 509.487 29.5971 509.362 29.4721L507.362 27.4721C507.102 27.2117 507.102 26.7896 507.362 26.5293C507.622 26.2689 508.044 26.2689 508.305 26.5293L509.167 27.3912V21.0007Z" fill="black"/>
<path d="M513.833 22.334C513.833 21.9658 514.132 21.6673 514.5 21.6673H519.167C519.535 21.6673 519.833 21.9658 519.833 22.334C519.833 22.7022 519.535 23.0007 519.167 23.0007H514.5C514.132 23.0007 513.833 22.7022 513.833 22.334Z" fill="black"/>
<path d="M513.833 25.6673C513.833 25.2991 514.132 25.0007 514.5 25.0007H519.167C519.535 25.0007 519.833 25.2991 519.833 25.6673C519.833 26.0355 519.535 26.334 519.167 26.334H514.5C514.132 26.334 513.833 26.0355 513.833 25.6673Z" fill="black"/>
<path d="M513.833 29.0007C513.833 28.6325 514.132 28.334 514.5 28.334H519.167C519.535 28.334 519.833 28.6325 519.833 29.0007C519.833 29.3688 519.535 29.6673 519.167 29.6673H514.5C514.132 29.6673 513.833 29.3688 513.833 29.0007Z" fill="black"/>
<path d="M535.5 19.3327C535.5 18.9645 535.798 18.666 536.167 18.666H546.833C547.202 18.666 547.5 18.9645 547.5 19.3327C547.5 19.7009 547.202 19.9993 546.833 19.9993H536.167C535.798 19.9993 535.5 19.7009 535.5 19.3327ZM535.5 29.3327C535.5 28.9645 535.798 28.666 536.167 28.666H546.833C547.202 28.666 547.5 28.9645 547.5 29.3327C547.5 29.7009 547.202 29.9993 546.833 29.9993H536.167C535.798 29.9993 535.5 29.7009 535.5 29.3327ZM540.833 25.9993C540.833 25.6312 541.132 25.3327 541.5 25.3327H546.833C547.202 25.3327 547.5 25.6312 547.5 25.9993C547.5 26.3675 547.202 26.666 546.833 26.666H541.5C541.132 26.666 540.833 26.3675 540.833 25.9993ZM540.833 22.666C540.833 22.2978 541.132 21.9993 541.5 21.9993H546.833C547.202 21.9993 547.5 22.2978 547.5 22.666C547.5 23.0342 547.202 23.3327 546.833 23.3327H541.5C541.132 23.3327 540.833 23.0342 540.833 22.666ZM536.059 24.8219C535.763 24.5629 535.763 24.1025 536.059 23.8435L537.089 22.9426C537.509 22.5749 538.167 22.8733 538.167 23.4318V25.2336C538.167 25.792 537.509 26.0905 537.089 25.7227L536.059 24.8219Z" fill="black"/>
<path d="M563.5 19.3327C563.5 18.9645 563.798 18.666 564.167 18.666H574.833C575.202 18.666 575.5 18.9645 575.5 19.3327C575.5 19.7009 575.202 19.9993 574.833 19.9993H564.167C563.798 19.9993 563.5 19.7009 563.5 19.3327ZM563.5 29.3327C563.5 28.9645 563.798 28.666 564.167 28.666H574.833C575.202 28.666 575.5 28.9645 575.5 29.3327C575.5 29.7009 575.202 29.9993 574.833 29.9993H564.167C563.798 29.9993 563.5 29.7009 563.5 29.3327ZM568.833 25.9993C568.833 25.6312 569.132 25.3327 569.5 25.3327H574.833C575.202 25.3327 575.5 25.6312 575.5 25.9993C575.5 26.3675 575.202 26.666 574.833 26.666H569.5C569.132 26.666 568.833 26.3675 568.833 25.9993ZM568.833 22.666C568.833 22.2978 569.132 21.9993 569.5 21.9993H574.833C575.202 21.9993 575.5 22.2978 575.5 22.666C575.5 23.0342 575.202 23.3327 574.833 23.3327H569.5C569.132 23.3327 568.833 23.0342 568.833 22.666ZM565.608 23.8435C565.904 24.1025 565.904 24.5629 565.608 24.8219L564.578 25.7227C564.158 26.0905 563.5 25.792 563.5 25.2336V23.4318C563.5 22.8733 564.158 22.5749 564.578 22.9426L565.608 23.8435Z" fill="black"/>
<path fill-rule="evenodd" clip-rule="evenodd" d="M595.167 19.3327C595.167 18.9645 595.465 18.666 595.833 18.666H602.5C602.868 18.666 603.167 18.9645 603.167 19.3327V20.666C603.167 21.0342 602.868 21.3327 602.5 21.3327C602.132 21.3327 601.833 21.0342 601.833 20.666V19.9993H598.422L598.245 21.4154C598.199 21.7807 597.866 22.0399 597.501 21.9942C597.135 21.9485 596.876 21.6153 596.922 21.25L597.078 19.9993H595.833C595.465 19.9993 595.167 19.7009 595.167 19.3327ZM592.004 19.22C592.251 18.9464 592.672 18.9242 592.946 19.1705L602.946 28.1705C603.22 28.4168 603.242 28.8383 602.995 29.112C602.749 29.3857 602.328 29.4079 602.054 29.1615L597.685 25.2292L597.161 29.4154C597.116 29.7807 596.783 30.0399 596.417 29.9942C596.052 29.9485 595.793 29.6153 595.838 29.25L596.477 24.1422L592.054 20.1615C591.78 19.9152 591.758 19.4937 592.004 19.22Z" fill="black"/>
<defs>
<clipPath id="clip0_929_79014">
<rect width="52" height="24" fill="white" transform="translate(314 12)"/>
</clipPath>
<clipPath id="clip1_929_79014">
<rect width="16" height="16" fill="white" transform="translate(381.5 16)"/>
</clipPath>
</defs>
</svg>
