<svg width="20" height="20" viewBox="0 0 20 20" fill="none" xmlns="http://www.w3.org/2000/svg">
<path d="M12.5 18.9577H7.49996C2.97496 18.9577 1.04163 17.0243 1.04163 12.4993V7.49935C1.04163 2.97435 2.97496 1.04102 7.49996 1.04102H9.16663C9.50829 1.04102 9.79163 1.32435 9.79163 1.66602C9.79163 2.00768 9.50829 2.29102 9.16663 2.29102H7.49996C3.65829 2.29102 2.29163 3.65768 2.29163 7.49935V12.4993C2.29163 16.341 3.65829 17.7077 7.49996 17.7077H12.5C16.3416 17.7077 17.7083 16.341 17.7083 12.4993V10.8327C17.7083 10.491 17.9916 10.2077 18.3333 10.2077C18.675 10.2077 18.9583 10.491 18.9583 10.8327V12.4993C18.9583 17.0243 17.025 18.9577 12.5 18.9577Z" fill="#305E82"/>
<path d="M7.08336 14.7424C6.57503 14.7424 6.10836 14.5591 5.76669 14.2258C5.35836 13.8174 5.18336 13.2258 5.27503 12.6008L5.63336 10.0924C5.70003 9.60911 6.01669 8.98411 6.35836 8.64245L12.925 2.07578C14.5834 0.417448 16.2667 0.417448 17.925 2.07578C18.8334 2.98411 19.2417 3.90911 19.1584 4.83411C19.0834 5.58411 18.6834 6.31745 17.925 7.06745L11.3584 13.6341C11.0167 13.9758 10.3917 14.2924 9.90836 14.3591L7.40003 14.7174C7.29169 14.7424 7.18336 14.7424 7.08336 14.7424ZM13.8084 2.95911L7.24169 9.52578C7.08336 9.68411 6.90003 10.0508 6.86669 10.2674L6.50836 12.7758C6.47503 13.0174 6.52503 13.2174 6.65003 13.3424C6.77503 13.4674 6.97503 13.5174 7.21669 13.4841L9.72503 13.1258C9.94169 13.0924 10.3167 12.9091 10.4667 12.7508L17.0334 6.18411C17.575 5.64245 17.8584 5.15911 17.9 4.70911C17.95 4.16745 17.6667 3.59245 17.0334 2.95078C15.7 1.61745 14.7834 1.99245 13.8084 2.95911Z" fill="#305E82"/>
<path d="M16.5417 8.19124C16.4833 8.19124 16.425 8.18291 16.375 8.16624C14.1833 7.54957 12.4417 5.80791 11.825 3.61624C11.7333 3.28291 11.925 2.94124 12.2583 2.84124C12.5917 2.74957 12.9333 2.94124 13.025 3.27457C13.525 5.04957 14.9333 6.45791 16.7083 6.95791C17.0417 7.04957 17.2333 7.39957 17.1417 7.73291C17.0667 8.01624 16.8167 8.19124 16.5417 8.19124Z" fill="#305E82"/>
</svg>
