<svg width="20" height="20" viewBox="0 0 20 20" fill="none" xmlns="http://www.w3.org/2000/svg">
<path d="M12.5 18.9577H7.49999C2.97499 18.9577 1.04166 17.0243 1.04166 12.4993V7.49935C1.04166 2.97435 2.97499 1.04102 7.49999 1.04102H11.6667C12.0083 1.04102 12.2917 1.32435 12.2917 1.66602C12.2917 2.00768 12.0083 2.29102 11.6667 2.29102H7.49999C3.65832 2.29102 2.29166 3.65768 2.29166 7.49935V12.4993C2.29166 16.341 3.65832 17.7077 7.49999 17.7077H12.5C16.3417 17.7077 17.7083 16.341 17.7083 12.4993V8.33268C17.7083 7.99102 17.9917 7.70768 18.3333 7.70768C18.675 7.70768 18.9583 7.99102 18.9583 8.33268V12.4993C18.9583 17.0243 17.025 18.9577 12.5 18.9577Z" fill="#509CF5"/>
<path d="M18.3333 8.95841H15C12.15 8.95841 11.0417 7.85007 11.0417 5.00007V1.66674C11.0417 1.41674 11.1917 1.18341 11.425 1.09174C11.6583 0.991739 11.925 1.05007 12.1083 1.22507L18.775 7.89174C18.95 8.06674 19.0083 8.34174 18.9083 8.57507C18.8083 8.8084 18.5833 8.95841 18.3333 8.95841ZM12.2917 3.17507V5.00007C12.2917 7.15007 12.85 7.70841 15 7.70841H16.825L12.2917 3.17507Z" fill="#509CF5"/>
<path d="M10.8333 11.459H5.83334C5.49168 11.459 5.20834 11.1757 5.20834 10.834C5.20834 10.4923 5.49168 10.209 5.83334 10.209H10.8333C11.175 10.209 11.4583 10.4923 11.4583 10.834C11.4583 11.1757 11.175 11.459 10.8333 11.459Z" fill="#509CF5"/>
<path d="M9.16668 14.791H5.83334C5.49168 14.791 5.20834 14.5077 5.20834 14.166C5.20834 13.8243 5.49168 13.541 5.83334 13.541H9.16668C9.50834 13.541 9.79168 13.8243 9.79168 14.166C9.79168 14.5077 9.50834 14.791 9.16668 14.791Z" fill="#509CF5"/>
</svg>
