<svg width="20" height="20" viewBox="0 0 20 20" fill="none" xmlns="http://www.w3.org/2000/svg">
<path d="M11.9071 6.91837L4.90707 13.7934C4.73176 13.9656 4.49581 14.0621 4.25004 14.0621C4.00427 14.0621 3.76832 13.9656 3.59301 13.7934L0.593009 10.8473C0.505136 10.761 0.435118 10.6582 0.386953 10.5449C0.338788 10.4316 0.313419 10.3098 0.312295 10.1867C0.310024 9.93799 0.406644 9.69857 0.5809 9.5211C0.667182 9.43323 0.769928 9.36321 0.88327 9.31505C0.996612 9.26688 1.11833 9.24151 1.24148 9.24039C1.49018 9.23812 1.7296 9.33474 1.90707 9.50899L4.25082 11.8106L10.5938 5.58087C10.7712 5.40661 11.0105 5.30995 11.2591 5.31215C11.5077 5.31435 11.7453 5.41522 11.9196 5.59259C12.0938 5.76995 12.1905 6.00927 12.1883 6.25791C12.1861 6.50654 12.0852 6.74411 11.9079 6.91837H11.9071ZM19.4188 5.59024C19.3325 5.50207 19.2296 5.43181 19.116 5.38348C19.0025 5.33516 18.8806 5.30972 18.7572 5.30863C18.6338 5.30754 18.5114 5.33082 18.397 5.37714C18.2826 5.42345 18.1785 5.49189 18.0907 5.57853L11.75 11.8106L11.1344 11.2059C10.9571 11.0316 10.7177 10.935 10.4691 10.9372C10.2205 10.9393 9.98289 11.0402 9.80863 11.2176C9.63438 11.395 9.53772 11.6343 9.53992 11.8829C9.54211 12.1315 9.64299 12.3691 9.82035 12.5434L11.093 13.7934C11.2683 13.9656 11.5043 14.0621 11.75 14.0621C11.9958 14.0621 12.2318 13.9656 12.4071 13.7934L19.4071 6.91837C19.4949 6.83209 19.5649 6.72935 19.613 6.61603C19.6611 6.50271 19.6864 6.38102 19.6875 6.25791C19.6886 6.13479 19.6654 6.01268 19.6193 5.89852C19.5732 5.78436 19.5051 5.68041 19.4188 5.59259V5.59024Z" fill="white"/>
</svg>
