<svg width="48" height="48" viewBox="0 0 48 48" fill="none" xmlns="http://www.w3.org/2000/svg">
<rect width="48" height="48" rx="8" fill="#305E82" fill-opacity="0.05"/>
<path d="M26.5 32.9587H21.5C16.975 32.9587 15.0417 31.0253 15.0417 26.5003V21.5003C15.0417 16.9753 16.975 15.042 21.5 15.042H25.6667C26.0083 15.042 26.2917 15.3253 26.2917 15.667C26.2917 16.0087 26.0083 16.292 25.6667 16.292H21.5C17.6583 16.292 16.2917 17.6587 16.2917 21.5003V26.5003C16.2917 30.342 17.6583 31.7087 21.5 31.7087H26.5C30.3417 31.7087 31.7083 30.342 31.7083 26.5003V22.3337C31.7083 21.992 31.9917 21.7087 32.3333 21.7087C32.675 21.7087 32.9583 21.992 32.9583 22.3337V26.5003C32.9583 31.0253 31.025 32.9587 26.5 32.9587Z" fill="#305E82"/>
<path d="M32.3333 22.9584H29C26.15 22.9584 25.0417 21.8501 25.0417 19.0001V15.6667C25.0417 15.4167 25.1917 15.1834 25.425 15.0917C25.6583 14.9917 25.925 15.0501 26.1083 15.2251L32.775 21.8917C32.95 22.0667 33.0083 22.3417 32.9083 22.5751C32.8083 22.8084 32.5833 22.9584 32.3333 22.9584ZM26.2917 17.1751V19.0001C26.2917 21.1501 26.85 21.7084 29 21.7084H30.825L26.2917 17.1751Z" fill="#305E82"/>
<path d="M24.8333 25.458H19.8333C19.4917 25.458 19.2083 25.1747 19.2083 24.833C19.2083 24.4913 19.4917 24.208 19.8333 24.208H24.8333C25.175 24.208 25.4583 24.4913 25.4583 24.833C25.4583 25.1747 25.175 25.458 24.8333 25.458Z" fill="#305E82"/>
<path d="M23.1667 28.792H19.8333C19.4917 28.792 19.2083 28.5087 19.2083 28.167C19.2083 27.8253 19.4917 27.542 19.8333 27.542H23.1667C23.5083 27.542 23.7917 27.8253 23.7917 28.167C23.7917 28.5087 23.5083 28.792 23.1667 28.792Z" fill="#305E82"/>
</svg>
