<svg width="20" height="20" viewBox="0 0 20 20" fill="none" xmlns="http://www.w3.org/2000/svg">
<path d="M12.9916 18.0501C12.8332 18.0501 12.6749 17.9917 12.5499 17.8667C12.3082 17.6251 12.3082 17.2251 12.5499 16.9834L14.8999 14.6334C15.1416 14.3917 15.5416 14.3917 15.7832 14.6334C16.0249 14.8751 16.0249 15.2751 15.7832 15.5167L13.4332 17.8667C13.3082 17.9917 13.1499 18.0501 12.9916 18.0501Z" fill="#E30045"/>
<path d="M15.3416 18.0501C15.1832 18.0501 15.0249 17.9917 14.8999 17.8667L12.5499 15.5167C12.3082 15.2751 12.3082 14.8751 12.5499 14.6334C12.7916 14.3917 13.1916 14.3917 13.4332 14.6334L15.7832 16.9834C16.0249 17.2251 16.0249 17.6251 15.7832 17.8667C15.6582 17.9917 15.4999 18.0501 15.3416 18.0501Z" fill="#E30045"/>
<path d="M10.1333 9.68366C10.1083 9.68366 10.0916 9.68366 10.0666 9.68366C10.0249 9.67533 9.96659 9.67533 9.91659 9.68366C7.49993 9.60866 5.67493 7.70866 5.67493 5.36699C5.67493 2.98366 7.61659 1.04199 9.99993 1.04199C12.3833 1.04199 14.3249 2.98366 14.3249 5.36699C14.3166 7.70866 12.4833 9.60866 10.1583 9.68366C10.1499 9.68366 10.1416 9.68366 10.1333 9.68366ZM9.99993 2.29199C8.30826 2.29199 6.92493 3.67533 6.92493 5.36699C6.92493 7.03366 8.22493 8.37533 9.88326 8.43366C9.93326 8.42533 10.0416 8.42533 10.1499 8.43366C11.7833 8.35866 13.0666 7.01699 13.0749 5.36699C13.0749 3.67533 11.6916 2.29199 9.99993 2.29199Z" fill="#E30045"/>
<path d="M9.99989 18.8001C8.29989 18.8001 6.69156 18.3584 5.47489 17.5417C4.31656 16.7667 3.68323 15.7084 3.68323 14.5667C3.68323 13.4251 4.32489 12.3751 5.47489 11.6084C7.96656 9.94173 12.0166 9.94173 14.5082 11.6084C14.7916 11.8001 14.8749 12.1917 14.6832 12.4751C14.4916 12.7667 14.0999 12.8417 13.8166 12.6501C11.7416 11.2667 8.24156 11.2667 6.16656 12.6501C5.36656 13.1834 4.93323 13.8584 4.93323 14.5667C4.93323 15.2751 5.37489 15.9667 6.16656 16.5001C7.17489 17.1751 8.53323 17.5417 9.99156 17.5417C10.3332 17.5417 10.6166 17.8251 10.6166 18.1667C10.6166 18.5084 10.3416 18.8001 9.99989 18.8001Z" fill="#E30045"/>
</svg>
