<svg width="16" height="16" viewBox="0 0 16 16" fill="none" xmlns="http://www.w3.org/2000/svg">
<path d="M10 15.1668H6.00001C2.38001 15.1668 0.833344 13.6202 0.833344 10.0002V6.00016C0.833344 2.38016 2.38001 0.833496 6.00001 0.833496H9.33334C9.60668 0.833496 9.83334 1.06016 9.83334 1.3335C9.83334 1.60683 9.60668 1.8335 9.33334 1.8335H6.00001C2.92668 1.8335 1.83334 2.92683 1.83334 6.00016V10.0002C1.83334 13.0735 2.92668 14.1668 6.00001 14.1668H10C13.0733 14.1668 14.1667 13.0735 14.1667 10.0002V6.66683C14.1667 6.3935 14.3933 6.16683 14.6667 6.16683C14.94 6.16683 15.1667 6.3935 15.1667 6.66683V10.0002C15.1667 13.6202 13.62 15.1668 10 15.1668Z" fill="white"/>
<path d="M14.6667 7.16682H12C9.72001 7.16682 8.83334 6.28016 8.83334 4.00016V1.33349C8.83334 1.13349 8.95334 0.946822 9.14001 0.873489C9.32668 0.793489 9.54001 0.840155 9.68668 0.980155L15.02 6.31349C15.16 6.45349 15.2067 6.67349 15.1267 6.86016C15.0467 7.04682 14.8667 7.16682 14.6667 7.16682ZM9.83334 2.54016V4.00016C9.83334 5.72016 10.28 6.16682 12 6.16682H13.46L9.83334 2.54016Z" fill="white"/>
<path d="M8.66666 9.1665H4.66666C4.39332 9.1665 4.16666 8.93984 4.16666 8.6665C4.16666 8.39317 4.39332 8.1665 4.66666 8.1665H8.66666C8.93999 8.1665 9.16666 8.39317 9.16666 8.6665C9.16666 8.93984 8.93999 9.1665 8.66666 9.1665Z" fill="white"/>
<path d="M7.33332 11.8335H4.66666C4.39332 11.8335 4.16666 11.6068 4.16666 11.3335C4.16666 11.0602 4.39332 10.8335 4.66666 10.8335H7.33332C7.60666 10.8335 7.83332 11.0602 7.83332 11.3335C7.83332 11.6068 7.60666 11.8335 7.33332 11.8335Z" fill="white"/>
</svg>
