<svg width="16" height="16" viewBox="0 0 16 16" fill="none" xmlns="http://www.w3.org/2000/svg">
<path d="M8 15.1733C7.27333 15.1733 6.55333 14.96 5.98666 14.54L3.12 12.4C2.36 11.8333 1.76666 10.6466 1.76666 9.70663V4.74663C1.76666 3.71996 2.52 2.62663 3.48666 2.26663L6.81333 1.01996C7.47333 0.773294 8.51333 0.773294 9.17333 1.01996L12.5 2.26663C13.4667 2.62663 14.22 3.71996 14.22 4.74663V9.69996C14.22 10.6466 13.6267 11.8266 12.8667 12.3933L10 14.5333C9.44666 14.96 8.72666 15.1733 8 15.1733ZM7.16666 1.95996L3.84 3.20663C3.27333 3.41996 2.77333 4.13996 2.77333 4.75329V9.70663C2.77333 10.34 3.22 11.2266 3.72 11.6L6.58666 13.74C7.35333 14.3133 8.64666 14.3133 9.42 13.74L12.2867 11.6C12.7933 11.22 13.2333 10.34 13.2333 9.70663V4.74663C13.2333 4.13996 12.7333 3.41996 12.1667 3.19996L8.84 1.95329C8.38666 1.79329 7.61333 1.79329 7.16666 1.95996Z" fill="#027B2A"/>
<path d="M7.10664 9.48658C6.97997 9.48658 6.85331 9.43992 6.75331 9.33992L5.67997 8.26658C5.48664 8.07325 5.48664 7.75325 5.67997 7.55992C5.87331 7.36658 6.19331 7.36658 6.38664 7.55992L7.10664 8.27992L9.61997 5.76658C9.81331 5.57325 10.1333 5.57325 10.3266 5.76658C10.52 5.95992 10.52 6.27992 10.3266 6.47325L7.45997 9.33992C7.35997 9.43992 7.23331 9.48658 7.10664 9.48658Z" fill="#027B2A"/>
</svg>
