<svg width="16" height="16" viewBox="0 0 16 16" fill="none" xmlns="http://www.w3.org/2000/svg">
<path d="M9.62651 4.83391C9.49984 4.83391 9.37318 4.78724 9.27318 4.68724L7.91984 3.33391L6.56651 4.68724C6.37318 4.88057 6.05318 4.88057 5.85984 4.68724C5.66651 4.49391 5.66651 4.17391 5.85984 3.98057L7.56651 2.27391C7.75984 2.08057 8.07984 2.08057 8.27318 2.27391L9.97984 3.98057C10.1732 4.17391 10.1732 4.49391 9.97984 4.68724C9.87984 4.78724 9.75318 4.83391 9.62651 4.83391Z" fill="#305E82"/>
<path d="M7.91992 9.95383C7.64659 9.95383 7.41992 9.72716 7.41992 9.45383V2.67383C7.41992 2.40049 7.64659 2.17383 7.91992 2.17383C8.19326 2.17383 8.41992 2.40049 8.41992 2.67383V9.45383C8.41992 9.73383 8.19326 9.95383 7.91992 9.95383Z" fill="#305E82"/>
<path d="M7.99984 13.8333C4.5665 13.8333 2.1665 11.4333 2.1665 8C2.1665 7.72667 2.39317 7.5 2.6665 7.5C2.93984 7.5 3.1665 7.72667 3.1665 8C3.1665 10.8467 5.15317 12.8333 7.99984 12.8333C10.8465 12.8333 12.8332 10.8467 12.8332 8C12.8332 7.72667 13.0598 7.5 13.3332 7.5C13.6065 7.5 13.8332 7.72667 13.8332 8C13.8332 11.4333 11.4332 13.8333 7.99984 13.8333Z" fill="#305E82"/>
</svg>
