<svg width="32" height="32" viewBox="0 0 32 32" fill="none" xmlns="http://www.w3.org/2000/svg">
<rect width="32" height="32" rx="8" fill="#4196F9" fill-opacity="0.05"/>
<path d="M16.0133 21.6868C14.46 21.6868 12.9067 21.4401 11.4333 20.9468C10.8733 20.7534 10.4467 20.3601 10.26 19.8468C10.0667 19.3334 10.1333 18.7668 10.44 18.2601L11.2067 16.9868C11.3667 16.7201 11.5133 16.1868 11.5133 15.8734V13.9468C11.5133 11.4668 13.5333 9.44678 16.0133 9.44678C18.4933 9.44678 20.5133 11.4668 20.5133 13.9468V15.8734C20.5133 16.1801 20.66 16.7201 20.82 16.9934L21.58 18.2601C21.8667 18.7401 21.92 19.3201 21.7267 19.8468C21.5333 20.3734 21.1133 20.7734 20.5867 20.9468C19.12 21.4401 17.5667 21.6868 16.0133 21.6868ZM16.0133 10.4468C14.0867 10.4468 12.5133 12.0134 12.5133 13.9468V15.8734C12.5133 16.3601 12.3133 17.0801 12.0667 17.5001L11.3 18.7734C11.1533 19.0201 11.1133 19.2801 11.2 19.5001C11.28 19.7268 11.48 19.9001 11.7533 19.9934C14.54 20.9268 17.4933 20.9268 20.28 19.9934C20.52 19.9134 20.7067 19.7334 20.7933 19.4934C20.88 19.2534 20.86 18.9934 20.7267 18.7734L19.96 17.5001C19.7067 17.0668 19.5133 16.3534 19.5133 15.8668V13.9468C19.5133 12.0134 17.9467 10.4468 16.0133 10.4468Z" fill="#4196F9"/>
<path d="M17.2533 10.6266C17.2067 10.6266 17.16 10.62 17.1133 10.6066C16.92 10.5533 16.7333 10.5133 16.5533 10.4866C15.9867 10.4133 15.44 10.4533 14.9267 10.6066C14.74 10.6666 14.54 10.6066 14.4133 10.4666C14.2867 10.3266 14.2467 10.1266 14.32 9.94662C14.5933 9.24662 15.26 8.78662 16.02 8.78662C16.78 8.78662 17.4467 9.23995 17.72 9.94662C17.7867 10.1266 17.7533 10.3266 17.6267 10.4666C17.5267 10.5733 17.3867 10.6266 17.2533 10.6266Z" fill="#4196F9"/>
<path d="M16.0133 23.2068C15.3533 23.2068 14.7133 22.9401 14.2467 22.4735C13.78 22.0068 13.5133 21.3668 13.5133 20.7068H14.5133C14.5133 21.1001 14.6733 21.4868 14.9533 21.7668C15.2333 22.0468 15.62 22.2068 16.0133 22.2068C16.84 22.2068 17.5133 21.5335 17.5133 20.7068H18.5133C18.5133 22.0868 17.3933 23.2068 16.0133 23.2068Z" fill="#4196F9"/>
</svg>
