<svg width="32" height="32" viewBox="0 0 32 32" fill="none" xmlns="http://www.w3.org/2000/svg">
<rect width="32" height="32" rx="8" fill="#8A38F5" fill-opacity="0.05"/>
<path d="M14.1064 15.7466C14.0864 15.7466 14.0731 15.7466 14.0531 15.7466C14.0197 15.7399 13.9731 15.7399 13.9331 15.7466C11.9997 15.6866 10.5397 14.1666 10.5397 12.2933C10.5397 10.3866 12.0931 8.83325 13.9997 8.83325C15.9064 8.83325 17.4597 10.3866 17.4597 12.2933C17.4531 14.1666 15.9864 15.6866 14.1264 15.7466C14.1197 15.7466 14.1131 15.7466 14.1064 15.7466ZM13.9997 9.83325C12.6464 9.83325 11.5397 10.9399 11.5397 12.2933C11.5397 13.6266 12.5797 14.6999 13.9064 14.7466C13.9464 14.7399 14.0331 14.7399 14.1197 14.7466C15.4264 14.6866 16.4531 13.6133 16.4597 12.2933C16.4597 10.9399 15.3531 9.83325 13.9997 9.83325Z" fill="#8A38F5"/>
<path d="M19.0264 15.8334C19.0064 15.8334 18.9864 15.8334 18.9664 15.8267C18.6931 15.8534 18.4131 15.6601 18.3864 15.3867C18.3597 15.1134 18.5264 14.8667 18.7997 14.8334C18.8797 14.8267 18.9664 14.8267 19.0397 14.8267C20.0131 14.7734 20.7731 13.9734 20.7731 12.9934C20.7731 11.9801 19.9531 11.1601 18.9397 11.1601C18.6664 11.1667 18.4397 10.9401 18.4397 10.6667C18.4397 10.3934 18.6664 10.1667 18.9397 10.1667C20.4997 10.1667 21.7731 11.4401 21.7731 13.0001C21.7731 14.5334 20.5731 15.7734 19.0464 15.8334C19.0397 15.8334 19.0331 15.8334 19.0264 15.8334Z" fill="#8A38F5"/>
<path d="M14.1131 23.0334C12.8064 23.0334 11.4931 22.7001 10.4997 22.0334C9.57307 21.4201 9.06641 20.5801 9.06641 19.6667C9.06641 18.7534 9.57307 17.9067 10.4997 17.2867C12.4997 15.9601 15.7397 15.9601 17.7264 17.2867C18.6464 17.9001 19.1597 18.7401 19.1597 19.6534C19.1597 20.5667 18.6531 21.4134 17.7264 22.0334C16.7264 22.7001 15.4197 23.0334 14.1131 23.0334ZM11.0531 18.1267C10.4131 18.5534 10.0664 19.1001 10.0664 19.6734C10.0664 20.2401 10.4197 20.7867 11.0531 21.2067C12.7131 22.3201 15.5131 22.3201 17.1731 21.2067C17.8131 20.7801 18.1597 20.2334 18.1597 19.6601C18.1597 19.0934 17.8064 18.5467 17.1731 18.1267C15.5131 17.0201 12.7131 17.0201 11.0531 18.1267Z" fill="#8A38F5"/>
<path d="M20.2264 21.8333C19.9931 21.8333 19.7864 21.6733 19.7397 21.4333C19.6864 21.16 19.8597 20.9 20.1264 20.84C20.5464 20.7533 20.9331 20.5867 21.2331 20.3533C21.6131 20.0667 21.8197 19.7067 21.8197 19.3267C21.8197 18.9467 21.6131 18.5867 21.2397 18.3067C20.9464 18.08 20.5797 17.92 20.1464 17.82C19.8797 17.76 19.7064 17.4933 19.7664 17.22C19.8264 16.9533 20.0931 16.78 20.3664 16.84C20.9397 16.9667 21.4397 17.1933 21.8464 17.5067C22.4664 17.9733 22.8197 18.6333 22.8197 19.3267C22.8197 20.02 22.4597 20.68 21.8397 21.1533C21.4264 21.4733 20.9064 21.7067 20.3331 21.82C20.2931 21.8333 20.2597 21.8333 20.2264 21.8333Z" fill="#8A38F5"/>
</svg>
