<svg width="32" height="32" viewBox="0 0 32 32" fill="none" xmlns="http://www.w3.org/2000/svg">
<rect width="32" height="32" rx="8" fill="#09B342" fill-opacity="0.05"/>
<path d="M16 23.1733C15.2733 23.1733 14.5533 22.96 13.9867 22.54L11.12 20.4C10.36 19.8333 9.76666 18.6466 9.76666 17.7066V12.7466C9.76666 11.72 10.52 10.6266 11.4867 10.2666L14.8133 9.01996C15.4733 8.77329 16.5133 8.77329 17.1733 9.01996L20.5 10.2666C21.4667 10.6266 22.22 11.72 22.22 12.7466V17.7C22.22 18.6466 21.6267 19.8266 20.8667 20.3933L18 22.5333C17.4467 22.96 16.7267 23.1733 16 23.1733ZM15.1667 9.95996L11.84 11.2066C11.2733 11.42 10.7733 12.14 10.7733 12.7533V17.7066C10.7733 18.34 11.22 19.2266 11.72 19.6L14.5867 21.74C15.3533 22.3133 16.6467 22.3133 17.42 21.74L20.2867 19.6C20.7933 19.22 21.2333 18.34 21.2333 17.7066V12.7466C21.2333 12.14 20.7333 11.42 20.1667 11.2L16.84 9.95329C16.3867 9.79329 15.6133 9.79329 15.1667 9.95996Z" fill="#09B342"/>
<path d="M15.1067 17.4866C14.98 17.4866 14.8533 17.4399 14.7533 17.3399L13.68 16.2666C13.4867 16.0732 13.4867 15.7532 13.68 15.5599C13.8733 15.3666 14.1933 15.3666 14.3867 15.5599L15.1067 16.2799L17.62 13.7666C17.8133 13.5732 18.1333 13.5732 18.3267 13.7666C18.52 13.9599 18.52 14.2799 18.3267 14.4732L15.46 17.3399C15.36 17.4399 15.2333 17.4866 15.1067 17.4866Z" fill="#09B342"/>
</svg>
