<svg width="32" height="32" viewBox="0 0 32 32" fill="none" xmlns="http://www.w3.org/2000/svg">
<rect width="32" height="32" rx="8" fill="#305E82" fill-opacity="0.05"/>
<path d="M22.6667 23.1667H9.33334C9.06001 23.1667 8.83334 22.9401 8.83334 22.6667C8.83334 22.3934 9.06001 22.1667 9.33334 22.1667H22.6667C22.94 22.1667 23.1667 22.3934 23.1667 22.6667C23.1667 22.9401 22.94 23.1667 22.6667 23.1667Z" fill="#305E82"/>
<path d="M10.4668 22.6666H9.4668L9.50013 14.6466C9.50013 14.0799 9.76013 13.5532 10.2068 13.2066L14.8735 9.57323C15.5335 9.0599 16.4601 9.0599 17.1268 9.57323L21.7935 13.1999C22.2335 13.5466 22.5001 14.0866 22.5001 14.6466V22.6666H21.5001V14.6532C21.5001 14.3999 21.3801 14.1532 21.1801 13.9932L16.5135 10.3666C16.2135 10.1332 15.7935 10.1332 15.4868 10.3666L10.8201 13.9999C10.6201 14.1532 10.5001 14.3999 10.5001 14.6532L10.4668 22.6666Z" fill="#305E82"/>
<path d="M17.6667 23.1666H14.3333C14.06 23.1666 13.8333 22.9399 13.8333 22.6666V20.3333C13.8333 19.5066 14.5067 18.8333 15.3333 18.8333H16.6667C17.4933 18.8333 18.1667 19.5066 18.1667 20.3333V22.6666C18.1667 22.9399 17.94 23.1666 17.6667 23.1666ZM14.8333 22.1666H17.1667V20.3333C17.1667 20.0599 16.94 19.8333 16.6667 19.8333H15.3333C15.06 19.8333 14.8333 20.0599 14.8333 20.3333V22.1666Z" fill="#305E82"/>
<path d="M14.3333 17.6666H13C12.36 17.6666 11.8333 17.1399 11.8333 16.4999V15.4999C11.8333 14.8599 12.36 14.3333 13 14.3333H14.3333C14.9733 14.3333 15.5 14.8599 15.5 15.4999V16.4999C15.5 17.1399 14.9733 17.6666 14.3333 17.6666ZM13 15.3333C12.9067 15.3333 12.8333 15.4066 12.8333 15.4999V16.4999C12.8333 16.5933 12.9067 16.6666 13 16.6666H14.3333C14.4267 16.6666 14.5 16.5933 14.5 16.4999V15.4999C14.5 15.4066 14.4267 15.3333 14.3333 15.3333H13Z" fill="#305E82"/>
<path d="M19 17.6666H17.6667C17.0267 17.6666 16.5 17.1399 16.5 16.4999V15.4999C16.5 14.8599 17.0267 14.3333 17.6667 14.3333H19C19.64 14.3333 20.1667 14.8599 20.1667 15.4999V16.4999C20.1667 17.1399 19.64 17.6666 19 17.6666ZM17.6667 15.3333C17.5733 15.3333 17.5 15.4066 17.5 15.4999V16.4999C17.5 16.5933 17.5733 16.6666 17.6667 16.6666H19C19.0933 16.6666 19.1667 16.5933 19.1667 16.4999V15.4999C19.1667 15.4066 19.0933 15.3333 19 15.3333H17.6667Z" fill="#305E82"/>
<path d="M20.6667 13.1667C20.3934 13.1667 20.1667 12.9468 20.1667 12.6734L20.1534 11.1667H17.7201C17.4467 11.1667 17.2201 10.9401 17.2201 10.6667C17.2201 10.3934 17.4467 10.1667 17.7201 10.1667H20.6534C20.9267 10.1667 21.1534 10.3867 21.1534 10.6601L21.1734 12.6601C21.1667 12.9401 20.9467 13.1667 20.6667 13.1667C20.6734 13.1667 20.6667 13.1667 20.6667 13.1667Z" fill="#305E82"/>
</svg>
