<svg width="32" height="32" viewBox="0 0 32 32" fill="none" xmlns="http://www.w3.org/2000/svg">
<rect width="32" height="32" rx="8" fill="#EA651A" fill-opacity="0.1"/>
<path d="M16.0067 23.16C15.5867 23.16 15.1733 23.02 14.8467 22.74L13.7933 21.84C13.6867 21.7467 13.42 21.6534 13.28 21.6534H12.1133C11.1267 21.6534 10.3267 20.8534 10.3267 19.8667V18.7267C10.3267 18.5867 10.2333 18.32 10.1467 18.22L9.23999 17.1534C8.69332 16.5067 8.69332 15.4934 9.23999 14.84L10.1467 13.7734C10.2333 13.6734 10.3267 13.4067 10.3267 13.2667V12.1334C10.3267 11.1467 11.1267 10.3467 12.1133 10.3467H13.2667C13.4067 10.3467 13.6667 10.2467 13.78 10.1534L14.8333 9.25338C15.4867 8.70005 16.5067 8.70005 17.16 9.25338L18.2133 10.1534C18.32 10.2467 18.5933 10.34 18.7333 10.34H19.8667C20.8533 10.34 21.6533 11.14 21.6533 12.1267V13.26C21.6533 13.4 21.7533 13.66 21.8467 13.7734L22.7467 14.8267C23.3067 15.4867 23.3 16.5067 22.7467 17.1534L21.8467 18.2067C21.7533 18.32 21.66 18.58 21.66 18.72V19.8534C21.66 20.84 20.86 21.64 19.8733 21.64H18.74C18.6 21.64 18.34 21.74 18.22 21.8334L17.1667 22.7334C16.84 23.02 16.42 23.16 16.0067 23.16ZM12.1133 11.3467C11.68 11.3467 11.3267 11.7 11.3267 12.1334V13.2667C11.3267 13.6467 11.1533 14.1267 10.9067 14.42L9.99999 15.4867C9.77332 15.76 9.77332 16.24 9.99999 16.5067L10.9 17.5667C11.14 17.84 11.32 18.34 11.32 18.72V19.86C11.32 20.2934 11.6733 20.6467 12.1067 20.6467H13.2667C13.64 20.6467 14.1333 20.8267 14.4267 21.0734L15.4867 21.98C15.76 22.2134 16.24 22.2134 16.5133 21.98L17.5667 21.08C17.8667 20.8267 18.3533 20.6534 18.7267 20.6534H19.86C20.2933 20.6534 20.6467 20.3 20.6467 19.8667V18.7334C20.6467 18.36 20.8267 17.8734 21.0733 17.5734L21.98 16.5134C22.2133 16.24 22.2133 15.76 21.98 15.4867L21.08 14.4334C20.8267 14.1334 20.6533 13.6467 20.6533 13.2734V12.1334C20.6533 11.7 20.3 11.3467 19.8667 11.3467H18.7333C18.3533 11.3467 17.86 11.1667 17.5667 10.92L16.5067 10.0134C16.2333 9.78005 15.76 9.78005 15.48 10.0134L14.4333 10.92C14.1333 11.1667 13.6467 11.3467 13.2667 11.3467H12.1133Z" fill="#EA651A"/>
<path d="M16 19.2467C15.6333 19.2467 15.3333 18.9467 15.3333 18.58C15.3333 18.2133 15.6267 17.9133 16 17.9133C16.3667 17.9133 16.6667 18.2133 16.6667 18.58C16.6667 18.9467 16.3733 19.2467 16 19.2467Z" fill="#EA651A"/>
<path d="M16 17.1466C15.7267 17.1466 15.5 16.9199 15.5 16.6466V13.4199C15.5 13.1466 15.7267 12.9199 16 12.9199C16.2733 12.9199 16.5 13.1466 16.5 13.4199V16.6399C16.5 16.9199 16.28 17.1466 16 17.1466Z" fill="#EA651A"/>
</svg>
