<svg width="16" height="16" viewBox="0 0 16 16" fill="none" xmlns="http://www.w3.org/2000/svg">
<path d="M10.3932 14.4399C10.2666 14.4399 10.1399 14.3932 10.0399 14.2932C9.84656 14.0999 9.84656 13.7799 10.0399 13.5865L11.9199 11.7065C12.1132 11.5132 12.4332 11.5132 12.6266 11.7065C12.8199 11.8999 12.8199 12.2199 12.6266 12.4132L10.7466 14.2932C10.6466 14.3932 10.5199 14.4399 10.3932 14.4399Z" fill="#E30045"/>
<path d="M12.2732 14.4399C12.1466 14.4399 12.0199 14.3932 11.9199 14.2932L10.0399 12.4132C9.84656 12.2199 9.84656 11.8999 10.0399 11.7065C10.2332 11.5132 10.5532 11.5132 10.7466 11.7065L12.6266 13.5865C12.8199 13.7799 12.8199 14.0999 12.6266 14.2932C12.5266 14.3932 12.3999 14.4399 12.2732 14.4399Z" fill="#E30045"/>
<path d="M8.10658 7.74683C8.08658 7.74683 8.07325 7.74683 8.05325 7.74683C8.01992 7.74016 7.97325 7.74016 7.93325 7.74683C5.99992 7.68683 4.53992 6.16683 4.53992 4.2935C4.53992 2.38683 6.09325 0.833496 7.99992 0.833496C9.90658 0.833496 11.4599 2.38683 11.4599 4.2935C11.4533 6.16683 9.98658 7.68683 8.12658 7.74683C8.11992 7.74683 8.11325 7.74683 8.10658 7.74683ZM7.99992 1.8335C6.64658 1.8335 5.53992 2.94016 5.53992 4.2935C5.53992 5.62683 6.57992 6.70016 7.90658 6.74683C7.94658 6.74016 8.03325 6.74016 8.11992 6.74683C9.42658 6.68683 10.4532 5.6135 10.4599 4.2935C10.4599 2.94016 9.35325 1.8335 7.99992 1.8335Z" fill="#E30045"/>
<path d="M7.99999 15.04C6.63999 15.04 5.35332 14.6866 4.37999 14.0333C3.45332 13.4133 2.94666 12.5666 2.94666 11.6533C2.94666 10.74 3.45999 9.89995 4.37999 9.28662C6.37332 7.95329 9.61332 7.95329 11.6067 9.28662C11.8333 9.43995 11.9 9.75329 11.7467 9.97995C11.5933 10.2133 11.28 10.2733 11.0533 10.12C9.39332 9.01329 6.59332 9.01329 4.93332 10.12C4.29332 10.5466 3.94666 11.0866 3.94666 11.6533C3.94666 12.22 4.29999 12.7733 4.93332 13.2C5.73999 13.74 6.82666 14.0333 7.99332 14.0333C8.26666 14.0333 8.49332 14.26 8.49332 14.5333C8.49332 14.8066 8.27332 15.04 7.99999 15.04Z" fill="#E30045"/>
</svg>
