<svg width="16" height="16" viewBox="0 0 16 16" fill="none" xmlns="http://www.w3.org/2000/svg">
<path d="M9.00016 6.16602H1.3335C1.06016 6.16602 0.833496 5.93935 0.833496 5.66602C0.833496 5.39268 1.06016 5.16602 1.3335 5.16602H9.00016C9.2735 5.16602 9.50016 5.39268 9.50016 5.66602C9.50016 5.93935 9.2735 6.16602 9.00016 6.16602Z" fill="#E30045"/>
<path d="M5.33333 11.5H4C3.72667 11.5 3.5 11.2733 3.5 11C3.5 10.7267 3.72667 10.5 4 10.5H5.33333C5.60667 10.5 5.83333 10.7267 5.83333 11C5.83333 11.2733 5.60667 11.5 5.33333 11.5Z" fill="#E30045"/>
<path d="M9.66667 11.5H7C6.72667 11.5 6.5 11.2733 6.5 11C6.5 10.7267 6.72667 10.5 7 10.5H9.66667C9.94 10.5 10.1667 10.7267 10.1667 11C10.1667 11.2733 9.94 11.5 9.66667 11.5Z" fill="#E30045"/>
<path d="M11.7068 14.1673H4.2935C1.64016 14.1673 0.833496 13.3673 0.833496 10.7407V5.26065C0.833496 2.63398 1.64016 1.83398 4.2935 1.83398H9.00016C9.2735 1.83398 9.50016 2.06065 9.50016 2.33398C9.50016 2.60732 9.2735 2.83398 9.00016 2.83398H4.2935C2.20016 2.83398 1.8335 3.19398 1.8335 5.26065V10.734C1.8335 12.8007 2.20016 13.1607 4.2935 13.1607H11.7002C13.7935 13.1607 14.1602 12.8007 14.1602 10.734V8.01398C14.1602 7.74065 14.3868 7.51398 14.6602 7.51398C14.9335 7.51398 15.1602 7.74065 15.1602 8.01398V10.734C15.1668 13.3673 14.3602 14.1673 11.7068 14.1673Z" fill="#E30045"/>
<path d="M11.5398 5.96081C11.4132 5.96081 11.2865 5.91414 11.1865 5.81414C10.9932 5.62081 10.9932 5.30081 11.1865 5.10747L13.7798 2.51414C13.9732 2.32081 14.2932 2.32081 14.4865 2.51414C14.6798 2.70747 14.6798 3.02747 14.4865 3.22081L11.8932 5.81414C11.7932 5.91414 11.6665 5.96081 11.5398 5.96081Z" fill="#E30045"/>
<path d="M14.1268 5.96081C14.0002 5.96081 13.8735 5.91414 13.7735 5.81414L11.1802 3.22081C10.9868 3.02747 10.9868 2.70747 11.1802 2.51414C11.3735 2.32081 11.6935 2.32081 11.8868 2.51414L14.4802 5.10747C14.6735 5.30081 14.6735 5.62081 14.4802 5.81414C14.3868 5.91414 14.2602 5.96081 14.1268 5.96081Z" fill="#E30045"/>
</svg>
