<svg width="16" height="16" viewBox="0 0 16 16" fill="none" xmlns="http://www.w3.org/2000/svg">
<path d="M8.10646 7.74634C8.08646 7.74634 8.07313 7.74634 8.05313 7.74634C8.01979 7.73967 7.97313 7.73967 7.93313 7.74634C5.99979 7.68634 4.53979 6.16634 4.53979 4.29301C4.53979 2.38634 6.09313 0.833008 7.99979 0.833008C9.90646 0.833008 11.4598 2.38634 11.4598 4.29301C11.4531 6.16634 9.98646 7.68634 8.12646 7.74634C8.11979 7.74634 8.11313 7.74634 8.10646 7.74634ZM7.99979 1.83301C6.64646 1.83301 5.5398 2.93967 5.5398 4.29301C5.5398 5.62634 6.57979 6.69967 7.90646 6.74634C7.93979 6.73967 8.03313 6.73967 8.11979 6.74634C9.42646 6.68634 10.4531 5.61301 10.4598 4.29301C10.4598 2.93967 9.35313 1.83301 7.99979 1.83301Z" fill="#807E7E"/>
<path d="M8.11307 15.0337C6.80641 15.0337 5.49307 14.7003 4.49974 14.0337C3.57307 13.4203 3.06641 12.5803 3.06641 11.667C3.06641 10.7537 3.57307 9.90699 4.49974 9.28699C6.49974 7.96033 9.73974 7.96033 11.7264 9.28699C12.6464 9.90033 13.1597 10.7403 13.1597 11.6537C13.1597 12.567 12.6531 13.4137 11.7264 14.0337C10.7264 14.7003 9.41974 15.0337 8.11307 15.0337ZM5.05307 10.127C4.41307 10.5537 4.06641 11.1003 4.06641 11.6737C4.06641 12.2403 4.41974 12.787 5.05307 13.207C6.71307 14.3203 9.51307 14.3203 11.1731 13.207C11.8131 12.7803 12.1597 12.2337 12.1597 11.6603C12.1597 11.0937 11.8064 10.547 11.1731 10.127C9.51307 9.02033 6.71307 9.02033 5.05307 10.127Z" fill="#807E7E"/>
</svg>
