<svg width="16" height="16" viewBox="0 0 16 16" fill="none" xmlns="http://www.w3.org/2000/svg">
<path d="M10 15.1673H6.00004C2.38004 15.1673 0.833374 13.6207 0.833374 10.0007V6.00065C0.833374 2.38065 2.38004 0.833984 6.00004 0.833984H7.33337C7.60671 0.833984 7.83337 1.06065 7.83337 1.33398C7.83337 1.60732 7.60671 1.83398 7.33337 1.83398H6.00004C2.92671 1.83398 1.83337 2.92732 1.83337 6.00065V10.0007C1.83337 13.074 2.92671 14.1673 6.00004 14.1673H10C13.0734 14.1673 14.1667 13.074 14.1667 10.0007V8.66732C14.1667 8.39398 14.3934 8.16732 14.6667 8.16732C14.94 8.16732 15.1667 8.39398 15.1667 8.66732V10.0007C15.1667 13.6207 13.62 15.1673 10 15.1673Z" fill="#807E7E"/>
<path d="M5.66664 11.7924C5.25997 11.7924 4.88664 11.6457 4.61331 11.3791C4.28664 11.0524 4.14664 10.5791 4.21997 10.0791L4.50664 8.0724C4.55997 7.68573 4.81331 7.18573 5.08664 6.9124L10.34 1.65906C11.6666 0.332396 13.0133 0.332396 14.34 1.65906C15.0666 2.38573 15.3933 3.12573 15.3266 3.86573C15.2666 4.46573 14.9466 5.0524 14.34 5.6524L9.08664 10.9057C8.81331 11.1791 8.31331 11.4324 7.92664 11.4857L5.91997 11.7724C5.83331 11.7924 5.74664 11.7924 5.66664 11.7924ZM11.0466 2.36573L5.7933 7.61906C5.66664 7.74573 5.51997 8.03906 5.4933 8.2124L5.20664 10.2191C5.17997 10.4124 5.21997 10.5724 5.31997 10.6724C5.41997 10.7724 5.57997 10.8124 5.7733 10.7857L7.77997 10.4991C7.95331 10.4724 8.25331 10.3257 8.37331 10.1991L13.6266 4.94573C14.06 4.5124 14.2866 4.12573 14.32 3.76573C14.36 3.3324 14.1333 2.8724 13.6266 2.35906C12.56 1.2924 11.8266 1.5924 11.0466 2.36573Z" fill="#807E7E"/>
<path d="M13.2333 6.55416C13.1866 6.55416 13.14 6.5475 13.1 6.53417C11.3466 6.04083 9.95329 4.6475 9.45996 2.89417C9.38662 2.6275 9.53996 2.35416 9.80662 2.27416C10.0733 2.20083 10.3466 2.35416 10.42 2.62083C10.82 4.04083 11.9466 5.1675 13.3666 5.5675C13.6333 5.64083 13.7866 5.92083 13.7133 6.1875C13.6533 6.41417 13.4533 6.55416 13.2333 6.55416Z" fill="#807E7E"/>
</svg>
