<svg width="16" height="16" viewBox="0 0 16 16" fill="none" xmlns="http://www.w3.org/2000/svg">
<path d="M8.00006 15.1733C7.27339 15.1733 6.55339 14.96 5.98672 14.54L3.12006 12.4C2.36006 11.8333 1.76672 10.6466 1.76672 9.70663V4.74663C1.76672 3.71996 2.52006 2.62663 3.48672 2.26663L6.81339 1.01996C7.47339 0.773294 8.51339 0.773294 9.17339 1.01996L12.5001 2.26663C13.4667 2.62663 14.2201 3.71996 14.2201 4.74663V9.69996C14.2201 10.6466 13.6267 11.8266 12.8667 12.3933L10.0001 14.5333C9.44672 14.96 8.72672 15.1733 8.00006 15.1733ZM7.16672 1.95996L3.84006 3.20663C3.27339 3.41996 2.77339 4.13996 2.77339 4.75329V9.70663C2.77339 10.34 3.22006 11.2266 3.72006 11.6L6.58672 13.74C7.35339 14.3133 8.64672 14.3133 9.42006 13.74L12.2867 11.6C12.7934 11.22 13.2334 10.34 13.2334 9.70663V4.74663C13.2334 4.13996 12.7334 3.41996 12.1667 3.19996L8.84006 1.95329C8.38672 1.79329 7.61339 1.79329 7.16672 1.95996Z" fill="#009D35"/>
<path d="M7.1067 9.48658C6.98003 9.48658 6.85337 9.43992 6.75337 9.33992L5.68003 8.26658C5.4867 8.07325 5.4867 7.75325 5.68003 7.55992C5.87337 7.36658 6.19337 7.36658 6.3867 7.55992L7.1067 8.27992L9.62003 5.76658C9.81337 5.57325 10.1334 5.57325 10.3267 5.76658C10.52 5.95992 10.52 6.27992 10.3267 6.47325L7.46003 9.33992C7.36003 9.43992 7.23337 9.48658 7.1067 9.48658Z" fill="#009D35"/>
</svg>
