<svg width="16" height="16" viewBox="0 0 16 16" fill="none" xmlns="http://www.w3.org/2000/svg">
<path d="M8.93332 11.6134H7.25998C6.16665 11.6134 5.27998 10.6934 5.27998 9.56005C5.27998 9.28672 5.50665 9.06005 5.77998 9.06005C6.05332 9.06005 6.27998 9.28672 6.27998 9.56005C6.27998 10.1401 6.71998 10.6134 7.25998 10.6134H8.93332C9.36665 10.6134 9.72665 10.2267 9.72665 9.76005C9.72665 9.18005 9.51998 9.06672 9.17998 8.94672L6.49332 8.00005C5.97332 7.82005 5.27332 7.43339 5.27332 6.24005C5.27332 5.21339 6.07998 4.38672 7.06665 4.38672H8.73998C9.83331 4.38672 10.72 5.30672 10.72 6.44005C10.72 6.71339 10.4933 6.94005 10.22 6.94005C9.94665 6.94005 9.71998 6.71339 9.71998 6.44005C9.71998 5.86005 9.27998 5.38672 8.73998 5.38672H7.06665C6.63332 5.38672 6.27332 5.77339 6.27332 6.24005C6.27332 6.82005 6.47998 6.93339 6.81998 7.05339L9.50665 8.00005C10.0266 8.18005 10.7266 8.56672 10.7266 9.76005C10.72 10.7801 9.91998 11.6134 8.93332 11.6134Z" fill="#305E82"/>
<path d="M8 12.5C7.72667 12.5 7.5 12.2733 7.5 12V4C7.5 3.72667 7.72667 3.5 8 3.5C8.27333 3.5 8.5 3.72667 8.5 4V12C8.5 12.2733 8.27333 12.5 8 12.5Z" fill="#305E82"/>
<path d="M10 15.1666H6.00004C2.38004 15.1666 0.833374 13.6199 0.833374 9.99992V5.99992C0.833374 2.37992 2.38004 0.833252 6.00004 0.833252H10C13.62 0.833252 15.1667 2.37992 15.1667 5.99992V9.99992C15.1667 13.6199 13.62 15.1666 10 15.1666ZM6.00004 1.83325C2.92671 1.83325 1.83337 2.92658 1.83337 5.99992V9.99992C1.83337 13.0733 2.92671 14.1666 6.00004 14.1666H10C13.0734 14.1666 14.1667 13.0733 14.1667 9.99992V5.99992C14.1667 2.92658 13.0734 1.83325 10 1.83325H6.00004Z" fill="#305E82"/>
</svg>
