<svg width="16" height="16" viewBox="0 0 16 16" fill="none" xmlns="http://www.w3.org/2000/svg">
<path d="M14.6667 15.1667H1.33337C1.06004 15.1667 0.833374 14.9401 0.833374 14.6667C0.833374 14.3934 1.06004 14.1667 1.33337 14.1667H14.6667C14.94 14.1667 15.1667 14.3934 15.1667 14.6667C15.1667 14.9401 14.94 15.1667 14.6667 15.1667Z" fill="#305E82"/>
<path d="M2.4668 14.6666H1.4668L1.50013 6.64656C1.50013 6.07989 1.76013 5.55324 2.2068 5.20657L6.87346 1.57323C7.53346 1.0599 8.46013 1.0599 9.1268 1.57323L13.7935 5.1999C14.2335 5.54657 14.5001 6.08656 14.5001 6.64656V14.6666H13.5001V6.65323C13.5001 6.3999 13.3801 6.15324 13.1801 5.99324L8.51346 2.36657C8.21346 2.13323 7.79346 2.13323 7.4868 2.36657L2.82013 5.99991C2.62013 6.15324 2.50013 6.3999 2.50013 6.65323L2.4668 14.6666Z" fill="#305E82"/>
<path d="M9.66671 15.1666H6.33337C6.06004 15.1666 5.83337 14.9399 5.83337 14.6666V12.3333C5.83337 11.5066 6.50671 10.8333 7.33337 10.8333H8.66671C9.49337 10.8333 10.1667 11.5066 10.1667 12.3333V14.6666C10.1667 14.9399 9.94004 15.1666 9.66671 15.1666ZM6.83337 14.1666H9.16671V12.3333C9.16671 12.0599 8.94004 11.8333 8.66671 11.8333H7.33337C7.06004 11.8333 6.83337 12.0599 6.83337 12.3333V14.1666Z" fill="#305E82"/>
<path d="M6.33337 9.66658H5.00004C4.36004 9.66658 3.83337 9.13992 3.83337 8.49992V7.49992C3.83337 6.85992 4.36004 6.33325 5.00004 6.33325H6.33337C6.97337 6.33325 7.50004 6.85992 7.50004 7.49992V8.49992C7.50004 9.13992 6.97337 9.66658 6.33337 9.66658ZM5.00004 7.33325C4.90671 7.33325 4.83337 7.40659 4.83337 7.49992V8.49992C4.83337 8.59325 4.90671 8.66659 5.00004 8.66659H6.33337C6.42671 8.66659 6.50004 8.59325 6.50004 8.49992V7.49992C6.50004 7.40659 6.42671 7.33325 6.33337 7.33325H5.00004Z" fill="#305E82"/>
<path d="M11 9.66658H9.66667C9.02667 9.66658 8.5 9.13992 8.5 8.49992V7.49992C8.5 6.85992 9.02667 6.33325 9.66667 6.33325H11C11.64 6.33325 12.1667 6.85992 12.1667 7.49992V8.49992C12.1667 9.13992 11.64 9.66658 11 9.66658ZM9.66667 7.33325C9.57333 7.33325 9.5 7.40659 9.5 7.49992V8.49992C9.5 8.59325 9.57333 8.66659 9.66667 8.66659H11C11.0933 8.66659 11.1667 8.59325 11.1667 8.49992V7.49992C11.1667 7.40659 11.0933 7.33325 11 7.33325H9.66667Z" fill="#305E82"/>
<path d="M12.6668 5.16675C12.3934 5.16675 12.1668 4.94675 12.1668 4.67342L12.1534 3.16675H9.72009C9.44676 3.16675 9.22009 2.94008 9.22009 2.66675C9.22009 2.39341 9.44676 2.16675 9.72009 2.16675H12.6534C12.9268 2.16675 13.1534 2.38674 13.1534 2.66007L13.1734 4.66007C13.1668 4.94007 12.9468 5.16675 12.6668 5.16675C12.6734 5.16675 12.6668 5.16675 12.6668 5.16675Z" fill="#305E82"/>
</svg>
