<svg width="16" height="16" viewBox="0 0 16 16" fill="none" xmlns="http://www.w3.org/2000/svg">
<path d="M11.9999 5.27343C11.9799 5.27343 11.9666 5.27343 11.9466 5.27343H11.9132C10.6532 5.23343 9.71323 4.26009 9.71323 3.06009C9.71323 1.83342 10.7132 0.840088 11.9332 0.840088C13.1532 0.840088 14.1532 1.84009 14.1532 3.06009C14.1466 4.26676 13.2066 5.24009 12.0066 5.28009C12.0066 5.27342 12.0066 5.27343 11.9999 5.27343ZM11.9332 1.83342C11.2599 1.83342 10.7132 2.38009 10.7132 3.05343C10.7132 3.71343 11.2266 4.24676 11.8866 4.27343C11.8932 4.26676 11.9466 4.26676 12.0066 4.27343C12.6532 4.24009 13.1532 3.70676 13.1599 3.05343C13.1599 2.38009 12.6132 1.83342 11.9332 1.83342Z" fill="white"/>
<path d="M12.0067 10.1866C11.7467 10.1866 11.4867 10.1666 11.2267 10.1199C10.9533 10.0733 10.7733 9.81327 10.82 9.53994C10.8667 9.2666 11.1267 9.0866 11.4 9.13327C12.22 9.27327 13.0867 9.11994 13.6667 8.73327C13.98 8.52661 14.1467 8.2666 14.1467 8.0066C14.1467 7.7466 13.9733 7.49327 13.6667 7.2866C13.0867 6.89993 12.2067 6.7466 11.38 6.89327C11.1067 6.9466 10.8467 6.75993 10.8 6.4866C10.7533 6.21327 10.9333 5.95327 11.2067 5.9066C12.2933 5.71327 13.42 5.91993 14.22 6.45327C14.8067 6.8466 15.1467 7.4066 15.1467 8.0066C15.1467 8.59993 14.8133 9.16661 14.22 9.56661C13.6133 9.96661 12.8267 10.1866 12.0067 10.1866Z" fill="white"/>
<path d="M3.97998 5.27325C3.97331 5.27325 3.96664 5.27325 3.96664 5.27325C2.76664 5.23325 1.82664 4.25992 1.81998 3.05992C1.81998 1.83325 2.81998 0.833252 4.03998 0.833252C5.25998 0.833252 6.25998 1.83325 6.25998 3.05325C6.25998 4.25992 5.31998 5.23325 4.11998 5.27325L3.97998 4.77325L4.02664 5.27325C4.01331 5.27325 3.99331 5.27325 3.97998 5.27325ZM4.04664 4.27325C4.08664 4.27325 4.11998 4.27325 4.15998 4.27992C4.75331 4.25325 5.27331 3.71992 5.27331 3.05992C5.27331 2.38658 4.72664 1.83992 4.05331 1.83992C3.37998 1.83992 2.83331 2.38658 2.83331 3.05992C2.83331 3.71325 3.33998 4.23992 3.98664 4.27992C3.99331 4.27325 4.01998 4.27325 4.04664 4.27325Z" fill="white"/>
<path d="M3.97334 10.1866C3.15334 10.1866 2.36668 9.96661 1.76001 9.56661C1.17334 9.17327 0.833344 8.6066 0.833344 8.0066C0.833344 7.41327 1.17334 6.8466 1.76001 6.45327C2.56001 5.91993 3.68668 5.71327 4.77334 5.9066C5.04668 5.95327 5.22668 6.21327 5.18001 6.4866C5.13334 6.75993 4.87334 6.9466 4.60001 6.89327C3.77334 6.7466 2.90001 6.89993 2.31334 7.2866C2.00001 7.49327 1.83334 7.7466 1.83334 8.0066C1.83334 8.2666 2.00668 8.52661 2.31334 8.73327C2.89334 9.11994 3.76001 9.27327 4.58001 9.13327C4.85334 9.0866 5.11334 9.27327 5.16001 9.53994C5.20668 9.81327 5.02668 10.0733 4.75334 10.1199C4.49334 10.1666 4.23334 10.1866 3.97334 10.1866Z" fill="white"/>
<path d="M7.99989 10.2534C7.97989 10.2534 7.96656 10.2534 7.94656 10.2534H7.91323C6.65323 10.2134 5.71323 9.24007 5.71323 8.04007C5.71323 6.8134 6.71323 5.82007 7.93323 5.82007C9.15323 5.82007 10.1532 6.82007 10.1532 8.04007C10.1466 9.24674 9.20656 10.2201 8.00656 10.2601C8.00656 10.2534 8.00656 10.2534 7.99989 10.2534ZM7.93323 6.81341C7.25989 6.81341 6.71323 7.36007 6.71323 8.03341C6.71323 8.69341 7.22656 9.22674 7.88656 9.25341C7.89323 9.24674 7.94656 9.24674 8.00656 9.25341C8.65323 9.22007 9.15323 8.68674 9.15989 8.03341C9.15989 7.36674 8.61323 6.81341 7.93323 6.81341Z" fill="white"/>
<path d="M7.99985 15.1732C7.19985 15.1732 6.39985 14.9666 5.77985 14.5466C5.19318 14.1532 4.85318 13.5932 4.85318 12.9932C4.85318 12.3999 5.18651 11.8266 5.77985 11.4332C7.02651 10.6066 8.97985 10.6066 10.2198 11.4332C10.8065 11.8266 11.1465 12.3866 11.1465 12.9866C11.1465 13.5799 10.8132 14.1532 10.2198 14.5466C9.59985 14.9599 8.79985 15.1732 7.99985 15.1732ZM6.33318 12.2732C6.01985 12.4799 5.85318 12.7399 5.85318 12.9999C5.85318 13.2599 6.02651 13.5132 6.33318 13.7199C7.23318 14.3266 8.75985 14.3266 9.65985 13.7199C9.97318 13.5132 10.1398 13.2532 10.1398 12.9932C10.1398 12.7332 9.96652 12.4799 9.65985 12.2732C8.76652 11.6666 7.23985 11.6732 6.33318 12.2732Z" fill="white"/>
</svg>
