<svg width="16" height="16" viewBox="0 0 16 16" fill="none" xmlns="http://www.w3.org/2000/svg">
<path d="M10.16 6.16602H1.33337C1.06004 6.16602 0.833374 5.93935 0.833374 5.66602C0.833374 5.39268 1.06004 5.16602 1.33337 5.16602H10.16C10.4334 5.16602 10.66 5.39268 10.66 5.66602C10.66 5.93935 10.4334 6.16602 10.16 6.16602Z" fill="#EA7917"/>
<path d="M4.86 11.5H4C3.72667 11.5 3.5 11.2733 3.5 11C3.5 10.7267 3.72667 10.5 4 10.5H4.86C5.13333 10.5 5.36 10.7267 5.36 11C5.36 11.2733 5.14 11.5 4.86 11.5Z" fill="#EA7917"/>
<path d="M9.66671 11.5H7.33337C7.06004 11.5 6.83337 11.2733 6.83337 11C6.83337 10.7267 7.06004 10.5 7.33337 10.5H9.66671C9.94004 10.5 10.1667 10.7267 10.1667 11C10.1667 11.2733 9.94004 11.5 9.66671 11.5Z" fill="#EA7917"/>
<path d="M11.7066 14.1671H5.31995C5.04661 14.1671 4.81995 13.9404 4.81995 13.6671C4.81995 13.3938 5.04661 13.1671 5.31995 13.1671H11.7066C13.7999 13.1671 14.1666 12.8071 14.1666 10.7404V4.59375C14.1666 4.32042 14.3933 4.09375 14.6666 4.09375C14.9399 4.09375 15.1666 4.32042 15.1666 4.59375V10.7338C15.1666 13.3671 14.3599 14.1671 11.7066 14.1671Z" fill="#EA7917"/>
<path d="M2.47337 13.9273C2.41337 13.9273 2.34671 13.914 2.28671 13.894C1.08004 13.414 0.833374 12.2873 0.833374 10.7407V5.26065C0.833374 2.63398 1.64004 1.83398 4.29337 1.83398H11.7C12.46 1.83398 13.02 1.89398 13.46 2.02732C13.7267 2.10732 13.8734 2.38065 13.8 2.64732C13.72 2.91398 13.44 3.06065 13.18 2.98732C12.8334 2.88732 12.3667 2.84065 11.7 2.84065H4.29337C2.20004 2.84065 1.83337 3.20065 1.83337 5.26732V10.7407C1.83337 12.334 2.12004 12.754 2.66004 12.9673C2.92004 13.0673 3.04004 13.3607 2.94004 13.614C2.86004 13.8073 2.67337 13.9273 2.47337 13.9273Z" fill="#EA7917"/>
<path d="M1.33329 15.1676C1.20663 15.1676 1.07996 15.1209 0.979961 15.0209C0.786628 14.8276 0.786628 14.5076 0.979961 14.3143L14.3133 0.980937C14.5066 0.787604 14.8266 0.787604 15.02 0.980937C15.2133 1.17427 15.2133 1.49427 15.02 1.6876L1.68663 15.0209C1.58663 15.1209 1.45996 15.1676 1.33329 15.1676Z" fill="#EA7917"/>
</svg>
