<svg width="16" height="16" viewBox="0 0 16 16" fill="none" xmlns="http://www.w3.org/2000/svg">
<path d="M14.6666 6.16602H1.33331C1.05998 6.16602 0.833313 5.93935 0.833313 5.66602C0.833313 5.39268 1.05998 5.16602 1.33331 5.16602H14.6666C14.94 5.16602 15.1666 5.39268 15.1666 5.66602C15.1666 5.93935 14.94 6.16602 14.6666 6.16602Z" fill="#509CF5"/>
<path d="M5.33333 11.5H4C3.72667 11.5 3.5 11.2733 3.5 11C3.5 10.7267 3.72667 10.5 4 10.5H5.33333C5.60667 10.5 5.83333 10.7267 5.83333 11C5.83333 11.2733 5.60667 11.5 5.33333 11.5Z" fill="#509CF5"/>
<path d="M9.66667 11.5H7C6.72667 11.5 6.5 11.2733 6.5 11C6.5 10.7267 6.72667 10.5 7 10.5H9.66667C9.94 10.5 10.1667 10.7267 10.1667 11C10.1667 11.2733 9.94 11.5 9.66667 11.5Z" fill="#509CF5"/>
<path d="M11.7066 14.1673H4.29331C1.63998 14.1673 0.833313 13.3673 0.833313 10.7407V5.26065C0.833313 2.63398 1.63998 1.83398 4.29331 1.83398H11.7C14.3533 1.83398 15.16 2.63398 15.16 5.26065V10.734C15.1666 13.3673 14.36 14.1673 11.7066 14.1673ZM4.29331 2.83398C2.19998 2.83398 1.83331 3.19398 1.83331 5.26065V10.734C1.83331 12.8007 2.19998 13.1607 4.29331 13.1607H11.7C13.7933 13.1607 14.16 12.8007 14.16 10.734V5.26065C14.16 3.19398 13.7933 2.83398 11.7 2.83398H4.29331Z" fill="#509CF5"/>
</svg>
