<svg width="16" height="16" viewBox="0 0 16 16" fill="none" xmlns="http://www.w3.org/2000/svg">
<path d="M10 15.1673H6.00001C2.38001 15.1673 0.833344 13.6207 0.833344 10.0007V6.00065C0.833344 2.38065 2.38001 0.833984 6.00001 0.833984H9.33334C9.60668 0.833984 9.83334 1.06065 9.83334 1.33398C9.83334 1.60732 9.60668 1.83398 9.33334 1.83398H6.00001C2.92668 1.83398 1.83334 2.92732 1.83334 6.00065V10.0007C1.83334 13.074 2.92668 14.1673 6.00001 14.1673H10C13.0733 14.1673 14.1667 13.074 14.1667 10.0007V6.66732C14.1667 6.39398 14.3933 6.16732 14.6667 6.16732C14.94 6.16732 15.1667 6.39398 15.1667 6.66732V10.0007C15.1667 13.6207 13.62 15.1673 10 15.1673Z" fill="white"/>
<path d="M14.6667 7.16633H12C9.72001 7.16633 8.83334 6.27967 8.83334 3.99967V1.333C8.83334 1.133 8.95334 0.946334 9.14001 0.873C9.32668 0.793 9.54001 0.839667 9.68668 0.979667L15.02 6.313C15.16 6.453 15.2067 6.673 15.1267 6.85967C15.0467 7.04633 14.8667 7.16633 14.6667 7.16633ZM9.83334 2.53967V3.99967C9.83334 5.71967 10.28 6.16633 12 6.16633H13.46L9.83334 2.53967Z" fill="white"/>
<path d="M8.66666 9.16602H4.66666C4.39332 9.16602 4.16666 8.93935 4.16666 8.66602C4.16666 8.39268 4.39332 8.16602 4.66666 8.16602H8.66666C8.93999 8.16602 9.16666 8.39268 9.16666 8.66602C9.16666 8.93935 8.93999 9.16602 8.66666 9.16602Z" fill="white"/>
<path d="M7.33332 11.834H4.66666C4.39332 11.834 4.16666 11.6073 4.16666 11.334C4.16666 11.0607 4.39332 10.834 4.66666 10.834H7.33332C7.60666 10.834 7.83332 11.0607 7.83332 11.334C7.83332 11.6073 7.60666 11.834 7.33332 11.834Z" fill="white"/>
</svg>
