<svg width="16" height="16" viewBox="0 0 16 16" fill="none" xmlns="http://www.w3.org/2000/svg">
<path d="M11 10.1676C10.8734 10.1676 10.7467 10.1209 10.6467 10.0209L8.28003 7.65427L7.55336 8.7476C7.47336 8.87427 7.33336 8.95427 7.18669 8.9676C7.03336 8.98094 6.8867 8.9276 6.7867 8.82094L4.65336 6.6876C4.46003 6.49427 4.46003 6.17427 4.65336 5.98094C4.8467 5.7876 5.1667 5.7876 5.36003 5.98094L7.06003 7.68094L7.7867 6.5876C7.8667 6.4676 8.00003 6.3876 8.15336 6.3676C8.30669 6.35427 8.45336 6.4076 8.55336 6.51427L11.3534 9.31427C11.5467 9.5076 11.5467 9.8276 11.3534 10.0209C11.2534 10.1209 11.1267 10.1676 11 10.1676Z" fill="#E30045"/>
<path d="M11 10.1673H9.66669C9.39335 10.1673 9.16669 9.94065 9.16669 9.66732C9.16669 9.39398 9.39335 9.16732 9.66669 9.16732H10.5V8.33398C10.5 8.06065 10.7267 7.83398 11 7.83398C11.2734 7.83398 11.5 8.06065 11.5 8.33398V9.66732C11.5 9.94065 11.2734 10.1673 11 10.1673Z" fill="#E30045"/>
<path d="M9.99998 15.1673H5.99998C2.37998 15.1673 0.833313 13.6207 0.833313 10.0007V6.00065C0.833313 2.38065 2.37998 0.833984 5.99998 0.833984H9.99998C13.62 0.833984 15.1666 2.38065 15.1666 6.00065V10.0007C15.1666 13.6207 13.62 15.1673 9.99998 15.1673ZM5.99998 1.83398C2.92665 1.83398 1.83331 2.92732 1.83331 6.00065V10.0007C1.83331 13.074 2.92665 14.1673 5.99998 14.1673H9.99998C13.0733 14.1673 14.1666 13.074 14.1666 10.0007V6.00065C14.1666 2.92732 13.0733 1.83398 9.99998 1.83398H5.99998Z" fill="#E30045"/>
</svg>
