<svg width="28" height="28" viewBox="0 0 28 28" fill="none" xmlns="http://www.w3.org/2000/svg">
<rect x="0.3497" y="0.3497" width="27.3006" height="27.3006" rx="7.6503" fill="white"/>
<rect x="0.3497" y="0.3497" width="27.3006" height="27.3006" rx="7.6503" stroke="#F6F6F6" stroke-width="0.699399"/>
<path d="M14.8623 9.32542C14.8623 9.80826 14.4709 10.1997 13.988 10.1997C13.5052 10.1997 13.1138 9.80826 13.1138 9.32542C13.1138 8.84259 13.5052 8.45117 13.988 8.45117C14.4709 8.45117 14.8623 8.84259 14.8623 9.32542Z" fill="#121212"/>
<path d="M14.8623 13.9881C14.8623 14.4709 14.4709 14.8623 13.988 14.8623C13.5052 14.8623 13.1138 14.4709 13.1138 13.9881C13.1138 13.5052 13.5052 13.1138 13.988 13.1138C14.4709 13.1138 14.8623 13.5052 14.8623 13.9881Z" fill="#121212"/>
<path d="M13.988 19.525C14.4709 19.525 14.8623 19.1336 14.8623 18.6507C14.8623 18.1679 14.4709 17.7765 13.988 17.7765C13.5052 17.7765 13.1138 18.1679 13.1138 18.6507C13.1138 19.1336 13.5052 19.525 13.988 19.525Z" fill="#121212"/>
</svg>
