<svg width="165" height="113" viewBox="0 0 165 113" fill="none" xmlns="http://www.w3.org/2000/svg">
<g clip-path="url(#clip0_880_74170)">
<g clip-path="url(#clip1_880_74170)">
<circle opacity="0.2" cx="82.5" cy="56.25" r="56.25" fill="#FFE7CC"/>
<circle opacity="0.4" cx="82.5" cy="56.25" r="40.5" fill="#FFE7CC"/>
<rect x="43.6792" y="73.9434" width="0.528169" height="4.75352" rx="0.264085" fill="#FF8800"/>
<rect x="46.3198" y="76.0566" width="0.528169" height="4.75352" rx="0.264085" transform="rotate(90 46.3198 76.0566)" fill="#FF8800"/>
<rect x="112.929" y="88.2031" width="0.410798" height="3.69718" rx="0.205399" fill="#FF8800"/>
<rect x="114.983" y="89.8457" width="0.410798" height="3.69718" rx="0.205399" transform="rotate(90 114.983 89.8457)" fill="#FF8800"/>
<rect x="122.905" y="19.543" width="0.528169" height="4.75352" rx="0.264085" fill="#FF8800"/>
<rect x="125.546" y="21.6562" width="0.528169" height="4.75352" rx="0.264085" transform="rotate(90 125.546 21.6562)" fill="#FF8800"/>
<rect x="58.2324" y="16.9648" width="0.469484" height="4.22535" rx="0.234742" fill="#FF8800"/>
<rect x="60.5806" y="18.8438" width="0.469484" height="4.22535" rx="0.234742" transform="rotate(90 60.5806 18.8438)" fill="#FF8800"/>
<circle cx="39.75" cy="27" r="2.625" stroke="#FF8800" stroke-width="0.75"/>
<circle cx="75.75" cy="94.5" r="2.625" stroke="#FF8800" stroke-width="0.75"/>
</g>
<path d="M83.25 82.5C97.7475 82.5 109.5 70.7475 109.5 56.25C109.5 41.7525 97.7475 30 83.25 30C68.7525 30 57 41.7525 57 56.25C57 70.7475 68.7525 82.5 83.25 82.5Z" fill="#FF8800"/>
<path d="M80.25 45.915V56.38C80.25 57.203 80.5541 58.002 81.1103 58.5989C81.6681 59.1977 82.4365 59.545 83.25 59.545C84.0635 59.545 84.8319 59.1977 85.3897 58.5989C85.9459 58.002 86.25 57.203 86.25 56.38V45.915C86.25 45.092 85.9459 44.293 85.3897 43.6961C84.8319 43.0973 84.0635 42.75 83.25 42.75C82.4365 42.75 81.6681 43.0973 81.1103 43.6961C80.5541 44.293 80.25 45.092 80.25 45.915Z" fill="white"/>
<path d="M86.3811 68.7153C86.7864 68.0642 87 67.3039 87 66.53C87 65.4935 86.6169 64.4898 85.9201 63.7419C85.2216 62.9921 84.2624 62.56 83.25 62.56C82.496 62.56 81.7638 62.8003 81.1462 63.2432C80.5293 63.6856 80.0562 64.3086 79.7787 65.0277C79.5013 65.7466 79.4294 66.5348 79.5702 67.2949C79.7111 68.055 80.0599 68.76 80.5799 69.3181C81.1005 69.8769 81.7704 70.2641 82.5081 70.4216C83.2464 70.5792 84.011 70.4977 84.7027 70.1902C85.3937 69.883 85.9755 69.3668 86.3811 68.7153Z" fill="white"/>
</g>
<defs>
<clipPath id="clip0_880_74170">
<rect width="165" height="112.5" fill="white"/>
</clipPath>
<clipPath id="clip1_880_74170">
<rect width="112.5" height="112.5" fill="white" transform="translate(26.25)"/>
</clipPath>
</defs>
</svg>
