<svg width="1088" height="56" viewBox="0 0 1088 56" fill="none" xmlns="http://www.w3.org/2000/svg">
<rect width="1088" height="56" rx="12" fill="#F6F6F6"/>
<path d="M272 24V26.6122C272 27.1633 271.357 27.4644 270.934 27.1116L266.599 23.4993C266.287 23.2395 266.287 22.7605 266.599 22.5007L270.934 18.8884C271.357 18.5356 272 18.8367 272 19.3878V22H276C278.122 22 280.157 22.8429 281.657 24.3431C283.157 25.8434 284 27.8783 284 30C284 32.1217 283.157 34.1566 281.657 35.6569C280.157 37.1571 278.122 38 276 38H273C272.448 38 272 37.5523 272 37C272 36.4477 272.448 36 273 36H276C277.591 36 279.117 35.3679 280.243 34.2426C281.368 33.1174 282 31.5913 282 30C282 28.4087 281.368 26.8826 280.243 25.7574C279.117 24.6321 277.591 24 276 24H272Z" fill="black"/>
<path d="M316 24H312C310.409 24 308.883 24.6321 307.757 25.7574C306.632 26.8826 306 28.4087 306 30C306 31.5913 306.632 33.1174 307.757 34.2426C308.883 35.3679 310.409 36 312 36H315C315.552 36 316 36.4477 316 37C316 37.5523 315.552 38 315 38H312C309.878 38 307.843 37.1571 306.343 35.6569C304.843 34.1566 304 32.1217 304 30C304 27.8783 304.843 25.8434 306.343 24.3431C307.843 22.8429 309.878 22 312 22H316V19.3878C316 18.8367 316.643 18.5356 317.066 18.8884L321.401 22.5007C321.713 22.7605 321.713 23.2395 321.401 23.4993L317.066 27.1116C316.643 27.4644 316 27.1633 316 26.6122V24Z" fill="black"/>
<path d="M356 27H360.5C361.163 27 361.799 26.7366 362.268 26.2678C362.737 25.7989 363 25.163 363 24.5C363 23.837 362.737 23.2011 362.268 22.7322C361.799 22.2634 361.163 22 360.5 22H356V27ZM366 31.5C366 32.0909 365.884 32.6761 365.657 33.2221C365.431 33.768 365.1 34.2641 364.682 34.682C364.264 35.0998 363.768 35.4313 363.222 35.6575C362.676 35.8836 362.091 36 361.5 36H354.65C354.291 36 354 35.709 354 35.35V20.65C354 20.291 354.291 20 354.65 20H360.5C361.381 20 362.243 20.2587 362.978 20.7438C363.713 21.2289 364.29 21.9192 364.637 22.7291C364.983 23.5389 365.085 24.4328 364.928 25.2997C364.772 26.1666 364.364 26.9685 363.756 27.606C364.439 28.0013 365.005 28.5692 365.399 29.2526C365.793 29.9361 366 30.7112 366 31.5ZM356 29V34H361.5C362.163 34 362.799 33.7366 363.268 33.2678C363.737 32.7989 364 32.163 364 31.5C364 30.837 363.737 30.2011 363.268 29.7322C362.799 29.2634 362.163 29 361.5 29H356Z" fill="black"/>
<path fill-rule="evenodd" clip-rule="evenodd" d="M393 21C393 20.4477 393.448 20 394 20H403C403.552 20 404 20.4477 404 21C404 21.5523 403.552 22 403 22H399.235L394.86 34H398C398.552 34 399 34.4477 399 35C399 35.5523 398.552 36 398 36H389C388.448 36 388 35.5523 388 35C388 34.4477 388.448 34 389 34H392.765L397.14 22H394C393.448 22 393 21.5523 393 21Z" fill="black"/>
<path d="M428 20C428 19.4477 427.552 19 427 19C426.448 19 426 19.4477 426 20V27C426 30.866 427 34 432 34C437 34 438 30.866 438 27V20C438 19.4477 437.552 19 437 19C436.448 19 436 19.4477 436 20V27C436 29.7614 436 32 432 32C428 32 428 29.7614 428 27V20Z" fill="black"/>
<path d="M426 35C425.448 35 425 35.4477 425 36C425 36.5523 425.448 37 426 37H438C438.552 37 439 36.5523 439 36C439 35.4477 438.552 35 438 35H426Z" fill="black"/>
<path d="M473.154 30C473.384 30.516 473.5 31.09 473.5 31.72C473.5 33.062 472.976 34.112 471.929 34.867C470.88 35.622 469.433 36 467.586 36C466.133 36 464.694 35.701 463.267 35.1023C462.927 34.9597 462.716 34.6211 462.716 34.2526C462.716 33.518 463.519 33.0509 464.204 33.3144C465.247 33.7154 466.306 33.916 467.382 33.916C469.933 33.916 471.212 33.184 471.221 31.719C471.226 31.422 471.172 31.1269 471.06 30.8515C470.949 30.5761 470.783 30.3259 470.573 30.116L470.453 29.999H460C459.448 29.999 459 29.5513 459 28.999C459 28.4467 459.448 27.999 460 27.999H476C476.552 27.999 477 28.4467 477 28.999C477 29.5513 476.552 29.999 476 29.999H473.154V30ZM469.019 26.9805C469.03 26.9842 469.028 27 469.016 27H463.633C463.63 27 463.628 26.9991 463.626 26.9974C463.452 26.8384 463.292 26.6646 463.148 26.478C462.716 25.92 462.5 25.246 462.5 24.452C462.5 23.216 462.966 22.165 463.897 21.299C464.83 20.433 466.271 20 468.222 20C469.504 20 470.738 20.2491 471.923 20.7474C472.246 20.8831 472.444 21.206 472.444 21.556C472.444 22.2597 471.672 22.713 471.003 22.4943C470.212 22.2353 469.377 22.106 468.498 22.106C466.018 22.106 464.779 22.888 464.779 24.452C464.779 24.872 464.997 25.238 465.433 25.551C465.869 25.864 467.046 26.301 467.046 26.301L469.019 26.9805Z" fill="black"/>
<path d="M495 36C495 35.4477 495.448 35 496 35H512C512.552 35 513 35.4477 513 36C513 36.5523 512.552 37 512 37H496C495.448 37 495 36.5523 495 36Z" fill="black"/>
<path d="M507.496 30H500.504L499.155 33.3714C499.004 33.7511 498.636 34 498.227 34C497.52 34 497.036 33.2855 497.299 32.6287L502.749 19.6286C502.9 19.249 503.268 19 503.677 19H504.323C504.732 19 505.1 19.249 505.251 19.6286L510.701 32.6287C510.964 33.2855 510.48 34 509.773 34C509.364 34 508.996 33.7511 508.845 33.3714L507.496 30ZM506.696 28L504 21.885L501.304 28H506.696Z" fill="black"/>
<path d="M555.015 34.035C554.463 34.035 554.015 33.5873 554.015 33.0351C554.015 32.4829 554.463 32.0353 555.015 32.0353H556.015C556.54 32.0353 557.06 31.9318 557.546 31.7308C558.031 31.5297 558.472 31.2351 558.843 30.8637C559.215 30.4922 559.509 30.0512 559.711 29.5659C559.912 29.0806 560.015 28.5605 560.015 28.0352C560.015 27.5099 559.912 26.9897 559.711 26.5044C559.509 26.0191 559.215 25.5781 558.843 25.2067C558.472 24.8352 558.031 24.5406 557.546 24.3395C557.06 24.1385 556.54 24.0351 556.015 24.0351H555.015C554.463 24.0351 554.015 23.5874 554.015 23.0352C554.015 22.483 554.463 22.0354 555.015 22.0354L556.015 22.0354C557.598 22.0482 559.111 22.686 560.226 23.8098C561.341 24.9336 561.966 26.4523 561.966 28.0352C561.966 29.618 561.341 31.1367 560.226 32.2605C559.111 33.3843 557.598 34.0221 556.015 34.035H555.015ZM550.014 33.0351C550.014 33.5873 549.567 34.035 549.015 34.035H548.015C547.223 34.0414 546.437 33.891 545.704 33.5924C544.97 33.2937 544.303 32.8528 543.74 32.295C543.178 31.7373 542.732 31.0737 542.427 30.3425C542.123 29.6114 541.966 28.8272 541.966 28.0352C541.966 27.2431 542.123 26.4589 542.427 25.7278C542.732 24.9966 543.178 24.333 543.74 23.7753C544.303 23.2175 544.97 22.7766 545.704 22.478C546.437 22.1793 547.223 22.0289 548.015 22.0354L549.015 22.0354C549.567 22.0354 550.014 22.483 550.014 23.0352C550.014 23.5874 549.567 24.0351 549.015 24.0351H548.015C547.489 24.0351 546.969 24.1385 546.484 24.3395C545.999 24.5406 545.558 24.8352 545.186 25.2067C544.815 25.5781 544.52 26.0191 544.319 26.5044C544.118 26.9897 544.015 27.5099 544.015 28.0352C544.015 28.5605 544.118 29.0806 544.319 29.5659C544.52 30.0512 544.815 30.4922 545.186 30.8637C545.558 31.2351 545.999 31.5297 546.484 31.7308C546.969 31.9318 547.489 32.0353 548.015 32.0353H549.015C549.567 32.0353 550.014 32.4829 550.014 33.0351ZM556.014 27.0346C556.567 27.0346 557.015 27.4825 557.015 28.0351C557.015 28.5877 556.567 29.0357 556.014 29.0356L548.015 29.0351C547.463 29.035 547.015 28.5874 547.015 28.0352C547.015 27.4826 547.463 27.0346 548.015 27.0346H556.014Z" fill="black"/>
<path fill-rule="evenodd" clip-rule="evenodd" d="M581.321 22C580.94 22 580.5 22.3591 580.5 22.9688V28.8025L583.138 25.2726C583.167 25.2343 583.198 25.1981 583.232 25.1642C584.209 24.1879 585.791 24.1879 586.768 25.1642C586.789 25.185 586.808 25.2067 586.827 25.2292L590.398 29.4924L591.482 28.4142L591.483 28.413C592.46 27.4379 594.042 27.4383 595.018 28.4142C595.042 28.4383 595.065 28.4636 595.086 28.49L595.5 28.9983V22.9688C595.5 22.3591 595.06 22 594.679 22H581.321ZM597.5 22.9688C597.5 21.4038 596.309 20 594.679 20H581.321C579.691 20 578.5 21.4038 578.5 22.9688V34C578.5 35.1046 579.395 36 580.5 36H595.5C596.605 36 597.5 35.1046 597.5 34V22.9688ZM595.5 32.1662L593.576 29.8029C593.38 29.6336 593.083 29.6421 592.896 29.8284L592.895 29.8303L591.036 31.6785C590.838 31.876 590.565 31.9812 590.286 31.9685C590.006 31.9558 589.744 31.8263 589.565 31.6117L585.33 26.5562C585.147 26.3951 584.874 26.3907 584.686 26.543L580.5 32.1431V33.0312C580.5 33.6409 580.94 34 581.321 34H594.679C595.06 34 595.5 33.6409 595.5 33.0312V32.1662Z" fill="black"/>
<path d="M591 26.5C591.828 26.5 592.5 25.8295 592.5 25C592.5 24.172 591.828 23.5 591 23.5C590.172 23.5 589.5 24.172 589.5 25C589.5 25.8295 590.172 26.5 591 26.5Z" fill="black"/>
<g clip-path="url(#clip0_1185_93614)">
<path fill-rule="evenodd" clip-rule="evenodd" d="M631.872 19C629.181 19 627 21.1812 627 23.8718V32.1282C627 34.8188 629.181 37 631.872 37H640.128C642.819 37 645 34.8188 645 32.1282V23.8718C645 21.1812 642.819 19 640.128 19H631.872ZM629 24.1515C629 22.411 630.411 21 632.152 21H639.848C641.589 21 643 22.411 643 24.1515V31.8485C643 33.589 641.589 35 639.848 35H632.152C630.411 35 629 33.589 629 31.8485V24.1515Z" fill="#52525B"/>
<path fill-rule="evenodd" clip-rule="evenodd" d="M659.872 19C657.181 19 655 21.1812 655 23.8718V32.1282C655 34.8188 657.181 37 659.872 37H668.128C670.819 37 673 34.8188 673 32.1282V23.8718C673 21.1812 670.819 19 668.128 19H659.872ZM657 24.1515C657 22.411 658.411 21 660.152 21H667.848C669.589 21 671 22.411 671 24.1515V31.8485C671 33.589 669.589 35 667.848 35H660.152C658.411 35 657 33.589 657 31.8485V24.1515Z" fill="#52525B"/>
</g>
<path d="M704.5 20.5C704.5 19.9477 704.948 19.5 705.5 19.5H712.5C713.052 19.5 713.5 19.9477 713.5 20.5C713.5 21.0523 713.052 21.5 712.5 21.5H705.5C704.948 21.5 704.5 21.0523 704.5 20.5Z" fill="black"/>
<path d="M697.5 34.5C697.5 35.0523 697.948 35.5 698.5 35.5C699.052 35.5 699.5 35.0523 699.5 34.5V22.9142L700.793 24.2071C701.183 24.5976 701.817 24.5976 702.207 24.2071C702.598 23.8166 702.598 23.1834 702.207 22.7929L699.207 19.7929C699.02 19.6054 698.765 19.5 698.5 19.5C698.235 19.5 697.98 19.6054 697.793 19.7929L694.793 22.7929C694.402 23.1834 694.402 23.8166 694.793 24.2071C695.183 24.5976 695.817 24.5976 696.207 24.2071L697.5 22.9142V34.5Z" fill="black"/>
<path d="M697.5 23.5C697.5 22.9477 697.948 22.5 698.5 22.5C699.052 22.5 699.5 22.9477 699.5 23.5V33.0858L700.793 31.7929C701.183 31.4024 701.817 31.4024 702.207 31.7929C702.598 32.1834 702.598 32.8166 702.207 33.2071L699.207 36.2071C699.02 36.3946 698.765 36.5 698.5 36.5C698.235 36.5 697.98 36.3946 697.793 36.2071L694.793 33.2071C694.402 32.8166 694.402 32.1834 694.793 31.7929C695.183 31.4024 695.817 31.4024 696.207 31.7929L697.5 33.0858V23.5Z" fill="black"/>
<path d="M704.5 25.5C704.5 24.9477 704.948 24.5 705.5 24.5H712.5C713.052 24.5 713.5 24.9477 713.5 25.5C713.5 26.0523 713.052 26.5 712.5 26.5H705.5C704.948 26.5 704.5 26.0523 704.5 25.5Z" fill="black"/>
<path d="M704.5 30.5C704.5 29.9477 704.948 29.5 705.5 29.5H712.5C713.052 29.5 713.5 29.9477 713.5 30.5C713.5 31.0523 713.052 31.5 712.5 31.5H705.5C704.948 31.5 704.5 31.0523 704.5 30.5Z" fill="black"/>
<path d="M704.5 35.5C704.5 34.9477 704.948 34.5 705.5 34.5H712.5C713.052 34.5 713.5 34.9477 713.5 35.5C713.5 36.0523 713.052 36.5 712.5 36.5H705.5C704.948 36.5 704.5 36.0523 704.5 35.5Z" fill="black"/>
<path d="M731 21C731 20.4477 731.448 20 732 20H748C748.552 20 749 20.4477 749 21C749 21.5523 748.552 22 748 22H732C731.448 22 731 21.5523 731 21ZM731 36C731 35.4477 731.448 35 732 35H748C748.552 35 749 35.4477 749 36C749 36.5523 748.552 37 748 37H732C731.448 37 731 36.5523 731 36ZM739 31C739 30.4477 739.448 30 740 30H748C748.552 30 749 30.4477 749 31C749 31.5523 748.552 32 748 32H740C739.448 32 739 31.5523 739 31ZM739 26C739 25.4477 739.448 25 740 25H748C748.552 25 749 25.4477 749 26C749 26.5523 748.552 27 748 27H740C739.448 27 739 26.5523 739 26ZM731.559 28.9892C731.263 28.7302 731.263 28.2698 731.559 28.0108L733.922 25.9433C734.342 25.5755 735 25.874 735 26.4324V30.5676C735 31.126 734.342 31.4245 733.922 31.0567L731.559 28.9892Z" fill="black"/>
<path d="M767 21C767 20.4477 767.448 20 768 20H784C784.552 20 785 20.4477 785 21C785 21.5523 784.552 22 784 22H768C767.448 22 767 21.5523 767 21ZM767 36C767 35.4477 767.448 35 768 35H784C784.552 35 785 35.4477 785 36C785 36.5523 784.552 37 784 37H768C767.448 37 767 36.5523 767 36ZM775 31C775 30.4477 775.448 30 776 30H784C784.552 30 785 30.4477 785 31C785 31.5523 784.552 32 784 32H776C775.448 32 775 31.5523 775 31ZM775 26C775 25.4477 775.448 25 776 25H784C784.552 25 785 25.4477 785 26C785 26.5523 784.552 27 784 27H776C775.448 27 775 26.5523 775 26ZM770.441 28.0108C770.737 28.2698 770.737 28.7302 770.441 28.9892L768.078 31.0567C767.658 31.4245 767 31.126 767 30.5676V26.4324C767 25.874 767.658 25.5755 768.078 25.9433L770.441 28.0108Z" fill="black"/>
<path fill-rule="evenodd" clip-rule="evenodd" d="M808.5 21C808.5 20.4477 808.948 20 809.5 20H819.5C820.052 20 820.5 20.4477 820.5 21V23C820.5 23.5523 820.052 24 819.5 24C818.948 24 818.5 23.5523 818.5 23V22H813.383L813.117 24.124C813.049 24.6721 812.549 25.0608 812.001 24.9923C811.453 24.9238 811.064 24.424 811.133 23.876L811.367 22H809.5C808.948 22 808.5 21.5523 808.5 21ZM803.757 20.831C804.126 20.4205 804.758 20.3872 805.169 20.7567L820.169 34.2567C820.579 34.6262 820.613 35.2585 820.243 35.669C819.874 36.0795 819.242 36.1128 818.831 35.7433L812.277 29.8448L811.492 36.124C811.424 36.6721 810.924 37.0608 810.376 36.9923C809.828 36.9238 809.439 36.424 809.508 35.876L810.465 28.2143L803.831 22.2433C803.421 21.8738 803.387 21.2415 803.757 20.831Z" fill="black"/>
<defs>
<clipPath id="clip0_1185_93614">
<rect width="52" height="24" fill="white" transform="translate(624 16)"/>
</clipPath>
</defs>
</svg>
