<svg width="20" height="20" viewBox="0 0 20 20" fill="none" xmlns="http://www.w3.org/2000/svg">
<path d="M9.167 10.8327H5.00033C4.76422 10.8327 4.56644 10.7527 4.407 10.5927C4.24755 10.4327 4.16755 10.2349 4.167 9.99935C4.16644 9.7638 4.24644 9.56602 4.407 9.40602C4.56755 9.24602 4.76533 9.16602 5.00033 9.16602H9.167V4.99935C9.167 4.76324 9.24699 4.56546 9.40699 4.40602C9.567 4.24657 9.76477 4.16657 10.0003 4.16602C10.2359 4.16546 10.4339 4.24546 10.5945 4.40602C10.7551 4.56657 10.8348 4.76435 10.8337 4.99935V9.16602H15.0003C15.2364 9.16602 15.4345 9.24602 15.5945 9.40602C15.7545 9.56602 15.8342 9.7638 15.8337 9.99935C15.8331 10.2349 15.7531 10.433 15.5937 10.5935C15.4342 10.7541 15.2364 10.8338 15.0003 10.8327H10.8337V14.9994C10.8337 15.2355 10.7537 15.4335 10.5937 15.5935C10.4337 15.7535 10.2359 15.8332 10.0003 15.8327C9.76477 15.8321 9.567 15.7521 9.40699 15.5927C9.24699 15.4332 9.167 15.2355 9.167 14.9994V10.8327Z" fill="white"/>
</svg>
