<svg width="64" height="64" viewBox="0 0 64 64" fill="none" xmlns="http://www.w3.org/2000/svg">
<path d="M39.9997 60.6673H23.9997C9.51967 60.6673 3.33301 54.4806 3.33301 40.0006V24.0007C3.33301 9.52065 9.51967 3.33398 23.9997 3.33398H39.9997C54.4797 3.33398 60.6663 9.52065 60.6663 24.0007V40.0006C60.6663 54.4806 54.4797 60.6673 39.9997 60.6673ZM23.9997 7.33398C11.7063 7.33398 7.33301 11.7073 7.33301 24.0007V40.0006C7.33301 52.294 11.7063 56.6673 23.9997 56.6673H39.9997C52.293 56.6673 56.6663 52.294 56.6663 40.0006V24.0007C56.6663 11.7073 52.293 7.33398 39.9997 7.33398H23.9997Z" fill="#305E82"/>
<path d="M24.0003 28.6667C19.947 28.6667 16.667 25.3867 16.667 21.3333C16.667 17.28 19.947 14 24.0003 14C28.0537 14 31.3337 17.28 31.3337 21.3333C31.3337 25.3867 28.0537 28.6667 24.0003 28.6667ZM24.0003 18C22.1603 18 20.667 19.4933 20.667 21.3333C20.667 23.1733 22.1603 24.6667 24.0003 24.6667C25.8403 24.6667 27.3337 23.1733 27.3337 21.3333C27.3337 19.4933 25.8403 18 24.0003 18Z" fill="#305E82"/>
<path d="M7.11972 52.5341C6.47972 52.5341 5.83972 52.2141 5.46638 51.6541C4.85305 50.7475 5.09305 49.4941 6.02638 48.8808L19.173 40.0541C22.0531 38.1075 26.0264 38.3475 28.6397 40.5608L29.5197 41.3341C30.8531 42.4808 33.1197 42.4808 34.4264 41.3341L45.5197 31.8141C48.3464 29.3875 52.7997 29.3875 55.6531 31.8141L59.9997 35.5475C60.8264 36.2675 60.933 37.5208 60.2131 38.3741C59.493 39.2008 58.2397 39.3075 57.3864 38.5875L53.0397 34.8541C51.7064 33.7075 49.4397 33.7075 48.1064 34.8541L37.0131 44.3741C34.1864 46.8008 29.7331 46.8008 26.8797 44.3741L25.9997 43.6008C24.7731 42.5608 22.7464 42.4541 21.3864 43.3875L8.23972 52.2141C7.89305 52.4275 7.49305 52.5341 7.11972 52.5341Z" fill="#305E82"/>
</svg>
